<?xml version="1.0" encoding="utf-8"?>
<!-- Generator: Adobe Illustrator 19.0.0, SVG Export Plug-In . SVG Version: 6.00 Build 0)  -->
<svg version="1.1" id="Lager_1" xmlns="http://www.w3.org/2000/svg" xmlns:xlink="http://www.w3.org/1999/xlink" x="0px" y="0px"
	 viewBox="-121 -4 369 801" style="enable-background:new -121 -4 369 801;" xml:space="preserve">
<style type="text/css">
	.st0{fill:none;}
	.st1{fill-opacity:0;}
	.st2{fill:none;stroke:#000000;stroke-width:2;stroke-linejoin:round;stroke-miterlimit:10;}
	.st3{fill:#FFFFFF;}
</style>
<rect x="-121" y="-4" class="st0" width="369" height="801"/>
<path class="st1" d="M-121-4h369.1v801.9H-121V-4z"/>
<path d="M127.6,440.3h101.5v67.6H127.6V440.3z"/>
<path class="st2" d="M127.6,440.3h101.5v67.6H127.6V440.3z"/>
<path class="st3" d="M168.4,105.3h67.3v208h-67.3V105.3z"/>
<path class="st2" d="M168.4,105.3h67.3v208h-67.3V105.3z"/>
<path class="st3" d="M-115.4,161.4h47.7v107.7h-47.7V161.4z"/>
<path class="st2" d="M-115.4,161.4h47.7v107.7h-47.7V161.4z"/>
<path class="st3" d="M157.4,62.3h68.8l0,0c9,0,16.3,7,16.3,15.7s-7.3,15.7-16.3,15.7h-68.8l0,0c-9,0-16.3-7-16.3-15.7
	S148.3,62.3,157.4,62.3z"/>
<path class="st2" d="M157.4,62.3h68.8l0,0c9,0,16.3,7,16.3,15.7s-7.3,15.7-16.3,15.7h-68.8l0,0c-9,0-16.3-7-16.3-15.7
	S148.3,62.3,157.4,62.3z"/>
<path class="st3" d="M-108.4,482.2h67.3v208h-67.3V482.2z"/>
<path class="st2" d="M-108.4,482.2h67.3v208h-67.3V482.2z"/>
<path class="st3" d="M122.9,42.7H215v337.7h-92.2V42.7z"/>
<path class="st2" d="M122.9,42.7H215v337.7h-92.2V42.7z"/>
<path d="M-98.3,118.9h79.1v181.6h-79.1V118.9z"/>
<path class="st2" d="M-98.3,118.9h79.1v181.6h-79.1V118.9z"/>
<path class="st3" d="M-98.3,62.3h68.8l0,0c9,0,16.3,7,16.3,15.7s-7.3,15.7-16.3,15.7h-68.8l0,0c-9,0-16.3-7-16.3-15.7
	S-107.3,62.3-98.3,62.3z"/>
<path class="st2" d="M-98.3,62.3h68.8l0,0c9,0,16.3,7,16.3,15.7s-7.3,15.7-16.3,15.7h-68.8l0,0c-9,0-16.3-7-16.3-15.7
	S-107.3,62.3-98.3,62.3z"/>
<path class="st3" d="M-98.3,439.8h68.8l0,0c9,0,16.3,7,16.3,15.7s-7.3,15.7-16.3,15.7h-68.8l0,0c-9,0-16.3-7-16.3-15.7
	S-107.3,439.8-98.3,439.8z"/>
<path class="st2" d="M-98.3,439.8h68.8l0,0c9,0,16.3,7,16.3,15.7s-7.3,15.7-16.3,15.7h-68.8l0,0c-9,0-16.3-7-16.3-15.7
	S-107.3,439.8-98.3,439.8z"/>
<path class="st3" d="M-89.1,42.7h55v337.7h-55V42.7z"/>
<path class="st2" d="M-89.1,42.7h55v337.7h-55V42.7z"/>
<path class="st3" d="M157.4,439.8h68.8l0,0c9,0,16.3,7,16.3,15.7s-7.3,15.7-16.3,15.7h-68.8l0,0c-9,0-16.3-7-16.3-15.7
	S148.3,439.8,157.4,439.8z"/>
<path class="st2" d="M157.4,439.8h68.8l0,0c9,0,16.3,7,16.3,15.7s-7.3,15.7-16.3,15.7h-68.8l0,0c-9,0-16.3-7-16.3-15.7
	S148.3,439.8,157.4,439.8z"/>
<path class="st3" d="M130.8,611.3h106.6v44.8H130.8V611.3z"/>
<path class="st2" d="M130.8,611.3h106.6v44.8H130.8V611.3z"/>
<path class="st3" d="M130.8,540.1h106.6v44.8H130.8V540.1z"/>
<path class="st2" d="M130.8,540.1h106.6v44.8H130.8V540.1z"/>
<path class="st3" d="M130.8,685.5h106.6v44.8H130.8V685.5z"/>
<path class="st2" d="M130.8,685.5h106.6v44.8H130.8V685.5z"/>
<path class="st1" d="M-114.6,513.2h24.9"/>
<path class="st2" d="M-114.6,513.2h24.9"/>
<path class="st1" d="M-114.6,565h24.9"/>
<path class="st2" d="M-114.6,565h24.9"/>
<path class="st1" d="M-114.6,612.9h24.9"/>
<path class="st2" d="M-114.6,612.9h24.9"/>
<path class="st1" d="M-114.6,670H-89"/>
<path class="st2" d="M-114.6,670H-89"/>
<path class="st3" d="M-89.1,419.8H215v337.7H-89.1L-89.1,419.8z"/>
<path class="st2" d="M-89.1,419.8H215v337.7H-89.1L-89.1,419.8z"/>
<path class="st3" d="M-65-3.1h256.6v800H-65V-3.1z"/>
<path class="st2" d="M-65-3.1h256.6v800H-65V-3.1z"/>
<path class="st1" d="M168.4,27.2v315.7h-67.6V27.2L168.4,27.2z"/>
<path class="st2" d="M168.4,27.2v315.7h-67.6V27.2L168.4,27.2z"/>
<g>
	<path d="M118.2,51.8h29.3V58h-2.3v-3.4h-24.6V58h-2.3V51.8z"/>
	<path d="M131.9,68.9l0.3,2.9c-1.1,0.1-2.1,0.5-2.8,0.9c-0.7,0.5-1.3,1.3-1.8,2.3c-0.5,1-0.7,2.2-0.7,3.5c0,1.2,0.2,2.2,0.5,3.1
		c0.3,0.9,0.8,1.5,1.4,2c0.6,0.4,1.3,0.6,2,0.6c0.7,0,1.3-0.2,1.9-0.6c0.5-0.4,1-1.1,1.4-2.1c0.2-0.6,0.6-2,1.1-4.1
		c0.5-2.1,1-3.6,1.4-4.4c0.6-1.1,1.3-1.9,2.1-2.4c0.8-0.5,1.8-0.8,2.9-0.8c1.2,0,2.2,0.3,3.2,1s1.8,1.6,2.3,2.9
		c0.5,1.3,0.8,2.7,0.8,4.2c0,1.7-0.3,3.2-0.8,4.5s-1.4,2.3-2.4,3c-1.1,0.7-2.3,1.1-3.6,1.1l-0.2-2.9c1.4-0.2,2.5-0.7,3.3-1.6
		c0.7-0.9,1.1-2.2,1.1-4c0-1.8-0.3-3.2-1-4c-0.7-0.8-1.5-1.3-2.4-1.3c-0.8,0-1.5,0.3-2,0.9c-0.5,0.6-1.1,2.1-1.6,4.6
		c-0.6,2.5-1,4.2-1.5,5.1c-0.6,1.3-1.4,2.3-2.3,3c-0.9,0.6-2,1-3.3,1c-1.2,0-2.4-0.3-3.4-1c-1.1-0.7-1.9-1.7-2.5-3
		c-0.6-1.3-0.9-2.8-0.9-4.4c0-2.1,0.3-3.8,0.9-5.2c0.6-1.4,1.5-2.5,2.7-3.3S130.4,68.9,131.9,68.9z"/>
	<path d="M124.6,91.3h22.9v16.6h-2.7V94.3h-7V107h-2.7V94.3h-7.8v14.1h-2.7V91.3z"/>
	<path d="M124.6,112.6h22.9v10.2c0,2-0.2,3.6-0.6,4.7s-1.1,1.9-2.2,2.5c-1,0.6-2.2,1-3.5,1c-1.6,0-3-0.5-4.1-1.6
		c-1.1-1.1-1.8-2.7-2.1-4.9c-0.4,0.8-0.8,1.4-1.1,1.8c-0.8,0.9-1.8,1.7-3,2.5l-6.2,4V129l4.8-3c1.4-0.9,2.4-1.6,3.2-2.2
		c0.7-0.6,1.2-1.1,1.5-1.5s0.5-0.9,0.6-1.4c0.1-0.3,0.1-0.9,0.1-1.7v-3.5h-10.2V112.6z M137.4,115.7v6.5c0,1.4,0.1,2.5,0.4,3.3
		s0.7,1.4,1.4,1.8s1.3,0.6,2.1,0.6c1.1,0,2-0.4,2.7-1.2c0.7-0.8,1-2,1-3.7v-7.3H137.4z"/>
	<path d="M124.6,136.2h22.9v3h-22.9V136.2z"/>
	<path d="M124.6,144.7h22.9v16.6h-2.7v-13.5h-7v12.7h-2.7v-12.7h-7.8v14.1h-2.7V144.7z"/>
	<path d="M124.6,165.9h22.9v3.1l-18,12h18v2.9h-22.9v-3.1l18-12h-18V165.9z"/>
	<path d="M147.5,204.1v3h-13.2c-2.3,0-4.1-0.3-5.5-0.8c-1.4-0.5-2.5-1.5-3.3-2.8s-1.3-3.1-1.3-5.4c0-2.1,0.4-3.9,1.1-5.3
		c0.7-1.4,1.8-2.3,3.2-2.9c1.4-0.6,3.3-0.9,5.7-0.9h13.2v3h-13.2c-2,0-3.5,0.2-4.4,0.6c-0.9,0.4-1.7,1-2.2,1.9
		c-0.5,0.9-0.8,2-0.8,3.3c0,2.2,0.5,3.8,1.5,4.8c1,0.9,3,1.4,5.8,1.4H147.5z"/>
	<path d="M124.6,212.1h22.9v4.6l-16.2,5.4c-1.5,0.5-2.6,0.9-3.4,1.1c0.8,0.3,2.1,0.7,3.7,1.2l15.9,5.5v4.1h-22.9V231h19.2l-19.2-6.7
		v-2.7l19.5-6.6h-19.5V212.1z"/>
	<path d="M124.6,238.7h22.9v4.6l-16.2,5.4c-1.5,0.5-2.6,0.9-3.4,1.1c0.8,0.3,2.1,0.7,3.7,1.2l15.9,5.5v4.1h-22.9v-2.9h19.2
		l-19.2-6.7v-2.7l19.5-6.6h-19.5V238.7z"/>
	<path d="M124.6,265.5h22.9v16.6h-2.7v-13.5h-7v12.7h-2.7v-12.7h-7.8v14.1h-2.7V265.5z"/>
	<path d="M124.6,286.9h22.9V297c0,2-0.2,3.6-0.6,4.7s-1.1,1.9-2.2,2.5c-1,0.6-2.2,1-3.5,1c-1.6,0-3-0.5-4.1-1.6
		c-1.1-1.1-1.8-2.7-2.1-4.9c-0.4,0.8-0.8,1.4-1.1,1.8c-0.8,0.9-1.8,1.7-3,2.5l-6.2,4v-3.8l4.8-3c1.4-0.9,2.4-1.6,3.2-2.2
		c0.7-0.6,1.2-1.1,1.5-1.5s0.5-0.9,0.6-1.4c0.1-0.3,0.1-0.9,0.1-1.7v-3.5h-10.2V286.9z M137.4,289.9v6.5c0,1.4,0.1,2.5,0.4,3.3
		s0.7,1.4,1.4,1.8s1.3,0.6,2.1,0.6c1.1,0,2-0.4,2.7-1.2c0.7-0.8,1-2,1-3.7v-7.3H137.4z"/>
	<path d="M118.2,323.2v-6.2h2.3v3.4h24.6v-3.4h2.3v6.2H118.2z"/>
</g>
</svg>
