<?xml version="1.0" encoding="utf-8"?>
<!-- Generator: Adobe Illustrator 19.0.0, SVG Export Plug-In . SVG Version: 6.00 Build 0)  -->
<svg version="1.1" id="Lager_1" xmlns="http://www.w3.org/2000/svg" xmlns:xlink="http://www.w3.org/1999/xlink" x="0px" y="0px"
	 viewBox="-131 223 348 348" style="enable-background:new -131 223 348 348;" xml:space="preserve">
<style type="text/css">
	.st0{fill:none;}
	.st1{fill-opacity:0;}
	.st2{fill:#FFFFFF;}
	.st3{fill:none;stroke:#000000;stroke-width:2;stroke-linejoin:round;stroke-miterlimit:10;}
</style>
<rect x="-131" y="223" class="st0" width="348" height="348"/>
<path class="st1" d="M-131,223h348v348h-348V223z"/>
<path class="st2" d="M-137,223h348v348h-348V223z"/>
<path class="st1" d="M-125.9,228.8H211v337.7h-336.9L-125.9,228.8z"/>
<path class="st3" d="M-125.9,228.8H211v337.7h-336.9L-125.9,228.8z"/>
<path class="st2" d="M151.7,263.6L151.7,263.6c0-8.4,7-15.2,15.6-15.2l0,0c4.1,0,8.1,1.6,11,4.4c2.9,2.8,4.6,6.7,4.6,10.7l0,0
	c0,8.4-7,15.2-15.6,15.2l0,0C158.7,278.7,151.7,271.9,151.7,263.6z"/>
<path class="st3" d="M151.7,263.6L151.7,263.6c0-8.4,7-15.2,15.6-15.2l0,0c4.1,0,8.1,1.6,11,4.4c2.9,2.8,4.6,6.7,4.6,10.7l0,0
	c0,8.4-7,15.2-15.6,15.2l0,0C158.7,278.7,151.7,271.9,151.7,263.6z"/>
<path class="st2" d="M-13.2,513.6h87.9v34.8h-87.9V513.6z"/>
<path class="st3" d="M-13.2,513.6h87.9v34.8h-87.9V513.6z"/>
<path class="st2" d="M-114.5,341.4h302.8V499h-302.8V341.4z"/>
<path class="st3" d="M-114.5,341.4h302.8V499h-302.8V341.4z"/>
<path d="M-72.3,410.4h218.7v72H-72.3V410.4z"/>
<path class="st2" d="M-58,453.3l3.5-0.5c0.4,2,1.1,3.4,2,4.3c1,0.9,2.2,1.3,3.5,1.3c1.7,0,3.1-0.6,4.2-1.7c1.1-1.1,1.7-2.6,1.7-4.3
	c0-1.6-0.5-2.9-1.6-4c-1.1-1.1-2.4-1.6-4-1.6c-0.7,0-1.5,0.1-2.5,0.4l0.4-3.1c0.2,0,0.4,0,0.6,0c1.5,0,2.8-0.4,4-1.2s1.8-2,1.8-3.6
	c0-1.3-0.4-2.4-1.3-3.2c-0.9-0.8-2-1.3-3.4-1.3c-1.4,0-2.5,0.4-3.4,1.3c-0.9,0.9-1.5,2.1-1.8,3.9l-3.5-0.6c0.4-2.4,1.4-4.2,2.9-5.5
	c1.5-1.3,3.4-2,5.7-2c1.6,0,3,0.3,4.3,1c1.3,0.7,2.3,1.6,3,2.7s1,2.4,1,3.7c0,1.2-0.3,2.4-1,3.4c-0.7,1-1.7,1.8-3,2.4
	c1.7,0.4,3,1.2,4,2.4s1.4,2.8,1.4,4.6c0,2.5-0.9,4.6-2.7,6.4s-4.1,2.6-6.9,2.6c-2.5,0-4.6-0.8-6.3-2.3
	C-56.8,457.6-57.8,455.7-58,453.3z M-33.8,460.8v-4h4v4H-33.8z M-24.7,453.3l3.7-0.3c0.3,1.8,0.9,3.1,1.9,4c1,0.9,2.2,1.4,3.6,1.4
	c1.7,0,3.1-0.6,4.3-1.9c1.2-1.3,1.8-3,1.8-5.1c0-2-0.6-3.6-1.7-4.8c-1.1-1.2-2.6-1.7-4.4-1.7c-1.1,0-2.1,0.3-3.1,0.8
	c-0.9,0.5-1.6,1.2-2.1,2l-3.3-0.4l2.8-14.7h14.2v3.4h-11.4l-1.5,7.7c1.7-1.2,3.5-1.8,5.4-1.8c2.5,0,4.6,0.9,6.3,2.6s2.6,4,2.6,6.7
	c0,2.6-0.8,4.8-2.3,6.7c-1.8,2.3-4.3,3.5-7.5,3.5c-2.6,0-4.7-0.7-6.4-2.2S-24.5,455.8-24.7,453.3z M-2.4,446.7c0-3.4,0.3-6.1,1-8.2
	s1.7-3.7,3.1-4.8c1.4-1.1,3.1-1.7,5.2-1.7c1.5,0,2.9,0.3,4,0.9c1.2,0.6,2.1,1.5,2.9,2.7c0.8,1.2,1.4,2.6,1.8,4.3s0.6,3.9,0.6,6.8
	c0,3.4-0.3,6.1-1,8.1s-1.7,3.7-3.1,4.8s-3.1,1.7-5.2,1.7c-2.8,0-4.9-1-6.5-3C-1.5,456-2.4,452.1-2.4,446.7z M1.2,446.7
	c0,4.7,0.5,7.8,1.6,9.4c1.1,1.6,2.5,2.3,4.1,2.3s3-0.8,4.1-2.3c1.1-1.6,1.7-4.7,1.7-9.4c0-4.7-0.6-7.8-1.7-9.4
	c-1.1-1.6-2.5-2.3-4.1-2.3c-1.6,0-2.9,0.7-3.9,2C1.8,438.8,1.2,442,1.2,446.7z M19.8,446.7c0-3.4,0.3-6.1,1-8.2s1.7-3.7,3.1-4.8
	c1.4-1.1,3.1-1.7,5.2-1.7c1.5,0,2.9,0.3,4,0.9c1.2,0.6,2.1,1.5,2.9,2.7c0.8,1.2,1.4,2.6,1.8,4.3s0.6,3.9,0.6,6.8
	c0,3.4-0.3,6.1-1,8.1s-1.7,3.7-3.1,4.8s-3.1,1.7-5.2,1.7c-2.8,0-4.9-1-6.5-3C20.7,456,19.8,452.1,19.8,446.7z M23.4,446.7
	c0,4.7,0.5,7.8,1.6,9.4c1.1,1.6,2.5,2.3,4.1,2.3s3-0.8,4.1-2.3c1.1-1.6,1.7-4.7,1.7-9.4c0-4.7-0.6-7.8-1.7-9.4
	c-1.1-1.6-2.5-2.3-4.1-2.3c-1.6,0-2.9,0.7-3.9,2C24,438.8,23.4,442,23.4,446.7z M54.5,460.8v-28.6h5.7l6.8,20.3
	c0.6,1.9,1.1,3.3,1.4,4.2c0.3-1,0.8-2.6,1.5-4.6l6.9-19.9h5.1v28.6h-3.7v-24l-8.3,24h-3.4l-8.3-24.4v24.4H54.5z M88,460.8v-28.6h3.8
	V444h14.9v-11.8h3.8v28.6h-3.8v-13.5H91.8v13.5H88z M114.5,460.8V458l13.2-15.2c-1.5,0.1-2.8,0.1-4,0.1h-8.5v-2.9h17v2.3L121,455.6
	l-2.2,2.4c1.6-0.1,3-0.2,4.4-0.2h9.6v3H114.5z"/>
<path d="M-82.7,419.8l-22.9,26.7l22.9,26.7V419.8z"/>
<path class="st3" d="M-82.7,419.8l-22.9,26.7l22.9,26.7V419.8z"/>
<path d="M156.7,419.8l22.9,26.7l-22.9,26.7V419.8z"/>
<path class="st3" d="M156.7,419.8l22.9,26.7l-22.9,26.7V419.8z"/>
<path class="st2" d="M-94.4,273.6L-94.4,273.6c0-8.4,26.4-15.2,58.9-15.2l0,0c32.5,0,58.9,6.8,58.9,15.2l0,0
	c0,8.4-26.4,15.2-58.9,15.2l0,0C-68,288.7-94.4,282-94.4,273.6z"/>
<path class="st3" d="M-94.4,273.6L-94.4,273.6c0-8.4,26.4-15.2,58.9-15.2l0,0c32.5,0,58.9,6.8,58.9,15.2l0,0
	c0,8.4-26.4,15.2-58.9,15.2l0,0C-68,288.7-94.4,282-94.4,273.6z"/>
<path class="st1" d="M23.5,273.6l119.1,0.1"/>
<path class="st3" d="M23.5,273.6l119.1,0.1"/>
<path class="st1" d="M-94.4,273.6l-30.5-43.9"/>
<path class="st3" d="M-94.4,273.6l-30.5-43.9"/>
<path d="M-85.2,246.2h12.9v53.4h-12.9V246.2z"/>
<path class="st3" d="M-85.2,246.2h12.9v53.4h-12.9V246.2z"/>
<path d="M1.4,246.2h12.9v53.4H1.4V246.2z"/>
<path class="st3" d="M1.4,246.2h12.9v53.4H1.4V246.2z"/>
<path class="st2" d="M-87.7,362.8h252.8v30.3H-87.7L-87.7,362.8z"/>
<path class="st3" d="M-87.7,362.8h252.8v30.3H-87.7L-87.7,362.8z"/>
<path class="st1" d="M-71.8,393.9v-9.8"/>
<path class="st3" d="M-71.8,393.9v-9.8"/>
<path class="st1" d="M-46.9,362.8v12.8"/>
<path class="st3" d="M-46.9,362.8v12.8"/>
<path class="st1" d="M2.7,362.4v12.8"/>
<path class="st3" d="M2.7,362.4v12.8"/>
<path class="st1" d="M-22.1,393.5v-9.8"/>
<path class="st3" d="M-22.1,393.5v-9.8"/>
<path class="st1" d="M102.1,362.4v12.8"/>
<path class="st3" d="M102.1,362.4v12.8"/>
<path class="st1" d="M77.2,393.5v-9.8"/>
<path class="st3" d="M77.2,393.5v-9.8"/>
<path class="st1" d="M151.7,362.4v12.8"/>
<path class="st3" d="M151.7,362.4v12.8"/>
<path class="st1" d="M126.9,393.5v-9.8"/>
<path class="st3" d="M126.9,393.5v-9.8"/>
<path class="st1" d="M27.6,393.5v-9.8"/>
<path class="st3" d="M27.6,393.5v-9.8"/>
<path class="st1" d="M52.4,362.4v12.8"/>
<path class="st3" d="M52.4,362.4v12.8"/>
<path d="M-66.9,359.1h8.5v40.3h-8.5V359.1z"/>
<path class="st3" d="M-66.9,359.1h8.5v40.3h-8.5V359.1z"/>
<g>
	<path d="M3.7,533.8l1.9-0.2c0.1,0.8,0.3,1.4,0.6,1.9c0.3,0.5,0.8,0.9,1.5,1.2c0.7,0.3,1.5,0.4,2.3,0.4c0.8,0,1.4-0.1,2-0.3
		s1-0.5,1.3-0.9c0.3-0.4,0.4-0.8,0.4-1.3c0-0.5-0.1-0.9-0.4-1.2c-0.3-0.4-0.7-0.6-1.4-0.9c-0.4-0.2-1.3-0.4-2.7-0.7
		c-1.4-0.3-2.3-0.6-2.9-0.9c-0.7-0.4-1.3-0.8-1.6-1.4c-0.4-0.6-0.5-1.2-0.5-1.9c0-0.8,0.2-1.5,0.6-2.1c0.4-0.7,1.1-1.2,1.9-1.5
		s1.7-0.5,2.8-0.5c1.1,0,2.1,0.2,2.9,0.5c0.9,0.4,1.5,0.9,2,1.6s0.7,1.5,0.7,2.4l-1.9,0.1c-0.1-0.9-0.4-1.7-1-2.2
		c-0.6-0.5-1.5-0.7-2.6-0.7c-1.2,0-2.1,0.2-2.6,0.7c-0.6,0.4-0.8,1-0.8,1.6c0,0.5,0.2,1,0.6,1.3c0.4,0.3,1.4,0.7,3,1.1
		c1.6,0.4,2.7,0.7,3.3,1c0.9,0.4,1.5,0.9,1.9,1.5c0.4,0.6,0.6,1.3,0.6,2.1c0,0.8-0.2,1.6-0.7,2.3c-0.5,0.7-1.1,1.3-2,1.7
		c-0.9,0.4-1.8,0.6-2.9,0.6c-1.4,0-2.5-0.2-3.4-0.6c-0.9-0.4-1.6-1-2.2-1.8C4,535.7,3.7,534.8,3.7,533.8z"/>
	<path d="M16.7,538.7l5.8-15h2.1l6.2,15h-2.3l-1.8-4.6h-6.3l-1.7,4.6H16.7z M20.6,522.7v-2.1h1.9v2.1H20.6z M21,532.5h5.1l-1.6-4.2
		c-0.5-1.3-0.8-2.3-1.1-3.1c-0.2,1-0.5,1.9-0.8,2.9L21,532.5z M24.4,522.7v-2.1h1.9v2.1H24.4z"/>
	<path d="M32.3,538.7v-15h2l7.9,11.8v-11.8h1.9v15h-2l-7.9-11.8v11.8H32.3z"/>
	<path d="M47.5,538.7v-15h5.2c1.2,0,2.1,0.1,2.7,0.2c0.9,0.2,1.6,0.6,2.2,1.1c0.8,0.7,1.4,1.5,1.8,2.6c0.4,1,0.6,2.2,0.6,3.6
		c0,1.1-0.1,2.2-0.4,3c-0.3,0.9-0.6,1.6-1,2.2c-0.4,0.6-0.9,1-1.4,1.4c-0.5,0.3-1.1,0.6-1.8,0.8c-0.7,0.2-1.5,0.3-2.4,0.3H47.5z
		 M49.5,536.9h3.2c1,0,1.8-0.1,2.3-0.3c0.6-0.2,1-0.4,1.3-0.8c0.5-0.5,0.8-1.1,1.1-1.9c0.3-0.8,0.4-1.8,0.4-2.9
		c0-1.6-0.3-2.8-0.8-3.6c-0.5-0.8-1.1-1.4-1.9-1.7c-0.5-0.2-1.4-0.3-2.6-0.3h-3.2V536.9z"/>
</g>
</svg>
