<?xml version="1.0" encoding="utf-8"?>
<!-- Generator: Adobe Illustrator 19.0.0, SVG Export Plug-In . SVG Version: 6.00 Build 0)  -->
<svg version="1.1" id="Lager_1" xmlns="http://www.w3.org/2000/svg" xmlns:xlink="http://www.w3.org/1999/xlink" x="0px" y="0px"
	 viewBox="138 -129.3 348 348" style="enable-background:new 138 -129.3 348 348;" xml:space="preserve">
<style type="text/css">
	.st0{fill:none;}
	.st1{fill-opacity:0;}
	.st2{fill:#FFFFFF;}
	.st3{fill:none;stroke:#000000;stroke-width:2;stroke-linejoin:round;stroke-miterlimit:10;}
	.st4{fill:none;stroke:#000000;stroke-linejoin:round;stroke-miterlimit:10;}
</style>
<rect x="138" y="-129.3" class="st0" width="348" height="348"/>
<path class="st1" d="M138-129.3h348v348H138V-129.3z"/>
<path class="st2" d="M132-129.3h354v348H132V-129.3z"/>
<path class="st1" d="M143.1-123.5H480v337.7H143.1V-123.5z"/>
<path class="st3" d="M143.1-123.5H480v337.7H143.1V-123.5z"/>
<path d="M271.8-113.6h74.3v56.9h-74.3V-113.6z"/>
<path class="st2" d="M292.5-85.2c0-2.7,0.3-4.9,0.8-6.5c0.6-1.7,1.4-2.9,2.5-3.8c1.1-0.9,2.5-1.3,4.2-1.3c1.2,0,2.3,0.3,3.2,0.8
	c0.9,0.5,1.7,1.2,2.3,2.1c0.6,0.9,1.1,2.1,1.4,3.4c0.3,1.3,0.5,3.1,0.5,5.4c0,2.7-0.3,4.9-0.8,6.5c-0.6,1.6-1.4,2.9-2.5,3.8
	c-1.1,0.9-2.5,1.3-4.2,1.3c-2.2,0-3.9-0.8-5.2-2.4C293.3-77.8,292.5-80.9,292.5-85.2z M295.4-85.2c0,3.8,0.4,6.3,1.3,7.5
	c0.9,1.2,2,1.9,3.3,1.9s2.4-0.6,3.3-1.9c0.9-1.3,1.3-3.8,1.3-7.5c0-3.8-0.4-6.3-1.3-7.5c-0.9-1.2-2-1.9-3.3-1.9
	c-1.3,0-2.3,0.5-3.1,1.6C295.9-91.5,295.4-89,295.4-85.2z M310.3-85.2c0-2.7,0.3-4.9,0.8-6.5c0.6-1.7,1.4-2.9,2.5-3.8
	c1.1-0.9,2.5-1.3,4.2-1.3c1.2,0,2.3,0.3,3.2,0.8c0.9,0.5,1.7,1.2,2.3,2.1c0.6,0.9,1.1,2.1,1.4,3.4c0.3,1.3,0.5,3.1,0.5,5.4
	c0,2.7-0.3,4.9-0.8,6.5c-0.6,1.6-1.4,2.9-2.5,3.8c-1.1,0.9-2.5,1.3-4.2,1.3c-2.2,0-3.9-0.8-5.2-2.4
	C311.1-77.8,310.3-80.9,310.3-85.2z M313.2-85.2c0,3.8,0.4,6.3,1.3,7.5c0.9,1.2,2,1.9,3.3,1.9s2.4-0.6,3.3-1.9
	c0.9-1.3,1.3-3.8,1.3-7.5c0-3.8-0.4-6.3-1.3-7.5c-0.9-1.2-2-1.9-3.3-1.9c-1.3,0-2.3,0.5-3.1,1.6C313.7-91.5,313.2-89,313.2-85.2z"/>
<path class="st2" d="M153.3-111.6h109.9v54.8H153.3V-111.6z"/>
<path class="st3" d="M153.3-111.6h109.9v54.8H153.3V-111.6z"/>
<path class="st1" d="M153.3-56.6l39.7-54.1"/>
<path class="st3" d="M153.3-56.6l39.7-54.1"/>
<path class="st1" d="M175.6-56.6l39.7-54.1"/>
<path class="st3" d="M175.6-56.6l39.7-54.1"/>
<path class="st1" d="M197.9-56.6l39.7-54.1"/>
<path class="st3" d="M197.9-56.6l39.7-54.1"/>
<path class="st1" d="M220.2-56.6l39.7-54.1"/>
<path class="st3" d="M220.2-56.6l39.7-54.1"/>
<path class="st2" d="M171-46.3h282v242.4H171V-46.3z"/>
<path class="st3" d="M171-46.3h282v242.4H171V-46.3z"/>
<path class="st2" d="M354.9-112.7h109.9v54.8H354.9V-112.7z"/>
<path class="st3" d="M354.9-112.7h109.9v54.8H354.9V-112.7z"/>
<path class="st1" d="M354.9-57.7l39.7-54.1"/>
<path class="st3" d="M354.9-57.7l39.7-54.1"/>
<path class="st1" d="M377.2-57.7l39.7-54.1"/>
<path class="st3" d="M377.2-57.7l39.7-54.1"/>
<path class="st1" d="M399.5-57.7l39.7-54.1"/>
<path class="st3" d="M399.5-57.7l39.7-54.1"/>
<path class="st1" d="M421.8-57.7l39.7-54.1"/>
<path class="st3" d="M421.8-57.7l39.7-54.1"/>
<path d="M182.5-41.2h259v163.9h-259V-41.2z"/>
<path class="st2" d="M253.6,14.2v-36.6h7.8v2.9h-4.2v30.8h4.2v2.9H253.6z M283.5,6.2V-19H274v-3.4h22.7v3.4h-9.5V6.2H283.5z
	 M314.4-0.5L318,0c-0.6,2.1-1.6,3.8-3.2,5c-1.5,1.2-3.5,1.8-5.9,1.8c-3,0-5.4-0.9-7.2-2.8C299.9,2,299-0.6,299-4
	c0-3.5,0.9-6.2,2.7-8.1c1.8-1.9,4.1-2.9,7-2.9c2.8,0,5,0.9,6.8,2.8c1.8,1.9,2.6,4.5,2.6,8c0,0.2,0,0.5,0,0.9h-15.5
	c0.1,2.3,0.8,4,1.9,5.2c1.2,1.2,2.6,1.8,4.3,1.8c1.3,0,2.4-0.3,3.3-1C313.1,2.1,313.8,1,314.4-0.5z M302.8-6.1h11.6
	c-0.2-1.8-0.6-3.1-1.3-3.9c-1.1-1.4-2.6-2-4.4-2c-1.6,0-3,0.5-4.1,1.6C303.5-9.4,302.9-7.9,302.8-6.1z M320.1,6.2l7.6-10.8l-7-10
	h4.4l3.2,4.9c0.6,0.9,1.1,1.7,1.5,2.3c0.6-0.9,1.1-1.6,1.6-2.3l3.5-4.9h4.2l-7.2,9.8l7.7,11h-4.3l-4.3-6.5L329.8-2l-5.5,8.2H320.1z
	 M350.1,3.1l0.5,3.1c-1,0.2-1.9,0.3-2.7,0.3c-1.3,0-2.3-0.2-3-0.6c-0.7-0.4-1.2-0.9-1.5-1.6c-0.3-0.7-0.4-2-0.4-4.2v-11.9h-2.6v-2.7
	h2.6v-5.1l3.5-2.1v7.2h3.5v2.7h-3.5V0.4c0,1,0.1,1.6,0.2,1.9c0.1,0.3,0.3,0.5,0.6,0.7c0.3,0.2,0.7,0.3,1.2,0.3
	C348.9,3.2,349.4,3.2,350.1,3.1z M370.5,14.2h-7.8v-2.9h4.2v-30.8h-4.2v-2.9h7.8V14.2z"/>
<path class="st1" d="M251.8,138.2H301v45.5h-49.3V138.2z"/>
<path class="st4" d="M251.8,138.2H301v45.5h-49.3V138.2z"/>
<path class="st1" d="M320.8,138.2h49.3v45.5h-49.3V138.2z"/>
<path class="st4" d="M320.8,138.2h49.3v45.5h-49.3V138.2z"/>
<path class="st2" d="M398.1,141.5h36.7v25.6h-36.7V141.5z"/>
<path class="st3" d="M398.1,141.5h36.7v25.6h-36.7V141.5z"/>
<path class="st2" d="M403.5,176.2L403.5,176.2c0-2.4,1.9-4.3,4.3-4.3l0,0c1.1,0,2.2,0.4,3,1.3c0.8,0.8,1.3,1.9,1.3,3l0,0
	c0,2.4-1.9,4.3-4.3,4.3l0,0C405.4,180.5,403.5,178.6,403.5,176.2z"/>
<path class="st3" d="M403.5,176.2L403.5,176.2c0-2.4,1.9-4.3,4.3-4.3l0,0c1.1,0,2.2,0.4,3,1.3c0.8,0.8,1.3,1.9,1.3,3l0,0
	c0,2.4-1.9,4.3-4.3,4.3l0,0C405.4,180.5,403.5,178.6,403.5,176.2z"/>
<path class="st2" d="M420.8,176.2L420.8,176.2c0-2.4,1.9-4.3,4.3-4.3l0,0c1.1,0,2.2,0.4,3,1.3s1.3,1.9,1.3,3l0,0
	c0,2.4-1.9,4.3-4.3,4.3l0,0C422.7,180.5,420.8,178.6,420.8,176.2z"/>
<path class="st3" d="M420.8,176.2L420.8,176.2c0-2.4,1.9-4.3,4.3-4.3l0,0c1.1,0,2.2,0.4,3,1.3s1.3,1.9,1.3,3l0,0
	c0,2.4-1.9,4.3-4.3,4.3l0,0C422.7,180.5,420.8,178.6,420.8,176.2z"/>
<g>
	<path d="M272,162.9l1.7-0.2c0,1.1,0.3,1.8,0.6,2.2s0.9,0.6,1.5,0.6c0.5,0,0.9-0.1,1.2-0.3s0.6-0.5,0.7-0.9s0.2-1,0.2-1.8v-9.9h1.9
		v9.8c0,1.2-0.1,2.1-0.4,2.8s-0.7,1.2-1.4,1.5s-1.4,0.5-2.2,0.5c-1.3,0-2.2-0.4-2.9-1.1S272,164.3,272,162.9z"/>
</g>
<g>
	<path d="M339.7,167v-14.3h1.9l7.5,11.2v-11.2h1.8V167h-1.9l-7.5-11.3V167H339.7z"/>
</g>
</svg>
