<?xml version="1.0" encoding="utf-8"?>
<!-- Generator: Adobe Illustrator 19.0.0, SVG Export Plug-In . SVG Version: 6.00 Build 0)  -->
<svg version="1.1" id="Lager_1" xmlns="http://www.w3.org/2000/svg" xmlns:xlink="http://www.w3.org/1999/xlink" x="0px" y="0px"
	 viewBox="138 -129.3 348 348" style="enable-background:new 138 -129.3 348 348;" xml:space="preserve">
<style type="text/css">
	.st0{fill:none;}
	.st1{fill-opacity:0;}
	.st2{fill:#FFFFFF;}
	.st3{fill:none;stroke:#000000;stroke-width:2;stroke-linejoin:round;stroke-miterlimit:10;}
	.st4{fill:none;stroke:#000000;stroke-linejoin:round;stroke-miterlimit:10;}
	.st5{enable-background:new    ;}
</style>
<rect x="139" y="-129.3" class="st0" width="348" height="348"/>
<path class="st1" d="M139-129.3h348v348H139V-129.3z"/>
<path class="st2" d="M133-129.3h354v348H133V-129.3z"/>
<path class="st1" d="M144.1-123.5H481v337.7H144.1V-123.5z"/>
<path class="st3" d="M144.1-123.5H481v337.7H144.1V-123.5z"/>
<path class="st2" d="M421.7-88.7L421.7-88.7c0-8.4,7-15.2,15.6-15.2l0,0c4.1,0,8.1,1.6,11,4.4c2.9,2.8,4.6,6.7,4.6,10.7l0,0
	c0,8.4-7,15.2-15.6,15.2l0,0C428.7-73.6,421.7-80.4,421.7-88.7z"/>
<path class="st3" d="M421.7-88.7L421.7-88.7c0-8.4,7-15.2,15.6-15.2l0,0c4.1,0,8.1,1.6,11,4.4c2.9,2.8,4.6,6.7,4.6,10.7l0,0
	c0,8.4-7,15.2-15.6,15.2l0,0C428.7-73.6,421.7-80.4,421.7-88.7z"/>
<path class="st1" d="M249.6,150.1h97.9V192h-97.9V150.1z"/>
<path class="st3" d="M249.6,150.1h97.9V192h-97.9V150.1z"/>
<path class="st2" d="M189.5-44.5L189.5-44.5c0-5.6,4.5-10.1,10.1-10.1l0,0c2.7,0,5.2,1.1,7.1,3s3,4.5,3,7.1l0,0
	c0,5.6-4.5,10.1-10.1,10.1l0,0C194-34.4,189.5-38.9,189.5-44.5z"/>
<path class="st3" d="M189.5-44.5L189.5-44.5c0-5.6,4.5-10.1,10.1-10.1l0,0c2.7,0,5.2,1.1,7.1,3s3,4.5,3,7.1l0,0
	c0,5.6-4.5,10.1-10.1,10.1l0,0C194-34.4,189.5-38.9,189.5-44.5z"/>
<path d="M195.5-40.8l4-7.4l4,7.4H195.5z"/>
<path class="st3" d="M195.5-40.8l4-7.4l4,7.4H195.5z"/>
<path class="st2" d="M239-44.5L239-44.5c0-5.6,4.5-10.1,10.1-10.1l0,0c2.7,0,5.2,1.1,7.1,3s3,4.5,3,7.1l0,0
	c0,5.6-4.5,10.1-10.1,10.1l0,0C243.5-34.4,239-38.9,239-44.5z"/>
<path class="st3" d="M239-44.5L239-44.5c0-5.6,4.5-10.1,10.1-10.1l0,0c2.7,0,5.2,1.1,7.1,3s3,4.5,3,7.1l0,0
	c0,5.6-4.5,10.1-10.1,10.1l0,0C243.5-34.4,239-38.9,239-44.5z"/>
<path d="M245-40.8l4-7.4l4,7.4H245z"/>
<path class="st3" d="M245-40.8l4-7.4l4,7.4H245z"/>
<path class="st2" d="M288.5-44.5L288.5-44.5c0-5.6,4.5-10.1,10.1-10.1l0,0c2.7,0,5.2,1.1,7.1,3s3,4.5,3,7.1l0,0
	c0,5.6-4.5,10.1-10.1,10.1l0,0C293-34.4,288.5-38.9,288.5-44.5z"/>
<path class="st3" d="M288.5-44.5L288.5-44.5c0-5.6,4.5-10.1,10.1-10.1l0,0c2.7,0,5.2,1.1,7.1,3s3,4.5,3,7.1l0,0
	c0,5.6-4.5,10.1-10.1,10.1l0,0C293-34.4,288.5-38.9,288.5-44.5z"/>
<path d="M294.5-40.8l4-7.4l4,7.4H294.5z"/>
<path class="st3" d="M294.5-40.8l4-7.4l4,7.4H294.5z"/>
<path class="st2" d="M337.9-44.5L337.9-44.5c0-5.6,4.5-10.1,10.1-10.1l0,0c2.7,0,5.2,1.1,7.1,3s3,4.5,3,7.1l0,0
	c0,5.6-4.5,10.1-10.1,10.1l0,0C342.4-34.4,337.9-38.9,337.9-44.5z"/>
<path class="st3" d="M337.9-44.5L337.9-44.5c0-5.6,4.5-10.1,10.1-10.1l0,0c2.7,0,5.2,1.1,7.1,3s3,4.5,3,7.1l0,0
	c0,5.6-4.5,10.1-10.1,10.1l0,0C342.4-34.4,337.9-38.9,337.9-44.5z"/>
<path d="M343.9-40.8l4-7.4l4,7.4H343.9z"/>
<path class="st3" d="M343.9-40.8l4-7.4l4,7.4H343.9z"/>
<path class="st2" d="M387.5-44.5L387.5-44.5c0-5.6,4.5-10.1,10.1-10.1l0,0c2.7,0,5.2,1.1,7.1,3c1.9,1.9,3,4.5,3,7.1l0,0
	c0,5.6-4.5,10.1-10.1,10.1l0,0C392-34.4,387.5-38.9,387.5-44.5z"/>
<path class="st3" d="M387.5-44.5L387.5-44.5c0-5.6,4.5-10.1,10.1-10.1l0,0c2.7,0,5.2,1.1,7.1,3c1.9,1.9,3,4.5,3,7.1l0,0
	c0,5.6-4.5,10.1-10.1,10.1l0,0C392-34.4,387.5-38.9,387.5-44.5z"/>
<path d="M393.5-40.8l4-7.4l4,7.4H393.5z"/>
<path class="st3" d="M393.5-40.8l4-7.4l4,7.4H393.5z"/>
<path class="st2" d="M189.5,130L189.5,130c0,5.6,4.5,10.1,10.1,10.1l0,0c2.7,0,5.2-1.1,7.1-3c1.9-1.9,3-4.5,3-7.1l0,0
	c0-5.6-4.5-10.1-10.1-10.1l0,0C194,119.9,189.5,124.4,189.5,130z"/>
<path class="st3" d="M189.5,130L189.5,130c0,5.6,4.5,10.1,10.1,10.1l0,0c2.7,0,5.2-1.1,7.1-3c1.9-1.9,3-4.5,3-7.1l0,0
	c0-5.6-4.5-10.1-10.1-10.1l0,0C194,119.9,189.5,124.4,189.5,130z"/>
<path d="M195.5,126.3l4,7.4l4-7.4H195.5z"/>
<path class="st3" d="M195.5,126.3l4,7.4l4-7.4H195.5z"/>
<path class="st2" d="M239,130L239,130c0,5.6,4.5,10.1,10.1,10.1l0,0c2.7,0,5.2-1.1,7.1-3c1.9-1.9,3-4.5,3-7.1l0,0
	c0-5.6-4.5-10.1-10.1-10.1l0,0C243.5,119.9,239,124.4,239,130z"/>
<path class="st3" d="M239,130L239,130c0,5.6,4.5,10.1,10.1,10.1l0,0c2.7,0,5.2-1.1,7.1-3c1.9-1.9,3-4.5,3-7.1l0,0
	c0-5.6-4.5-10.1-10.1-10.1l0,0C243.5,119.9,239,124.4,239,130z"/>
<path d="M245,126.3l4,7.4l4-7.4H245z"/>
<path class="st3" d="M245,126.3l4,7.4l4-7.4H245z"/>
<path class="st2" d="M288.5,130L288.5,130c0,5.6,4.5,10.1,10.1,10.1l0,0c2.7,0,5.2-1.1,7.1-3c1.9-1.9,3-4.5,3-7.1l0,0
	c0-5.6-4.5-10.1-10.1-10.1l0,0C293,119.9,288.5,124.4,288.5,130z"/>
<path class="st3" d="M288.5,130L288.5,130c0,5.6,4.5,10.1,10.1,10.1l0,0c2.7,0,5.2-1.1,7.1-3c1.9-1.9,3-4.5,3-7.1l0,0
	c0-5.6-4.5-10.1-10.1-10.1l0,0C293,119.9,288.5,124.4,288.5,130z"/>
<path d="M294.5,126.3l4,7.4l4-7.4H294.5z"/>
<path class="st3" d="M294.5,126.3l4,7.4l4-7.4H294.5z"/>
<path d="M168.5-31h260.1v147H168.5V-31z"/>
<path class="st3" d="M168.5-31h260.1v147H168.5V-31z"/>
<path class="st2" d="M337.9,130L337.9,130c0,5.6,4.5,10.1,10.1,10.1l0,0c2.7,0,5.2-1.1,7.1-3c1.9-1.9,3-4.5,3-7.1l0,0
	c0-5.6-4.5-10.1-10.1-10.1l0,0C342.4,119.9,337.9,124.4,337.9,130z"/>
<path class="st3" d="M337.9,130L337.9,130c0,5.6,4.5,10.1,10.1,10.1l0,0c2.7,0,5.2-1.1,7.1-3c1.9-1.9,3-4.5,3-7.1l0,0
	c0-5.6-4.5-10.1-10.1-10.1l0,0C342.4,119.9,337.9,124.4,337.9,130z"/>
<path d="M343.9,126.3l4,7.4l4-7.4H343.9z"/>
<path class="st3" d="M343.9,126.3l4,7.4l4-7.4H343.9z"/>
<path class="st2" d="M387.5,130L387.5,130c0,5.6,4.5,10.1,10.1,10.1l0,0c2.7,0,5.2-1.1,7.1-3c1.9-1.9,3-4.5,3-7.1l0,0
	c0-5.6-4.5-10.1-10.1-10.1l0,0C392,119.9,387.5,124.4,387.5,130z"/>
<path class="st3" d="M387.5,130L387.5,130c0,5.6,4.5,10.1,10.1,10.1l0,0c2.7,0,5.2-1.1,7.1-3c1.9-1.9,3-4.5,3-7.1l0,0
	c0-5.6-4.5-10.1-10.1-10.1l0,0C392,119.9,387.5,124.4,387.5,130z"/>
<path d="M393.5,126.3l4,7.4l4-7.4H393.5z"/>
<path class="st3" d="M393.5,126.3l4,7.4l4-7.4H393.5z"/>
<path class="st2" d="M174.6-24.2h49.6v132.6h-49.6V-24.2z"/>
<path class="st4" d="M174.6-24.2h49.6v132.6h-49.6V-24.2z"/>
<path d="M186,56.5l11-28.6h4.1l11.7,28.6h-4.3l-3.3-8.7h-12l-3.1,8.7H186z M194.3,44.7h9.7l-3-7.9c-0.9-2.4-1.6-4.4-2-5.9
	c-0.4,1.8-0.9,3.7-1.5,5.5L194.3,44.7z"/>
<path class="st2" d="M224.2-24.2h49.6v132.6h-49.6V-24.2L224.2-24.2z"/>
<path class="st4" d="M224.2-24.2h49.6v132.6h-49.6V-24.2L224.2-24.2z"/>
<path d="M235.6,56.5l11-28.6h4.1l11.7,28.6h-4.3l-3.3-8.7h-12l-3.1,8.7H235.6z M243.9,44.7h9.7l-3-7.9c-0.9-2.4-1.6-4.4-2-5.9
	c-0.4,1.8-0.9,3.7-1.5,5.5L243.9,44.7z"/>
<path class="st2" d="M273.8-24.2h49.6v132.6h-49.6V-24.2z"/>
<path class="st4" d="M273.8-24.2h49.6v132.6h-49.6V-24.2z"/>
<path d="M285.2,56.5l11-28.6h4.1L312,56.5h-4.3l-3.3-8.7h-12l-3.1,8.7H285.2z M293.4,44.7h9.7l-3-7.9c-0.9-2.4-1.6-4.4-2-5.9
	c-0.4,1.8-0.9,3.7-1.5,5.5L293.4,44.7z"/>
<path class="st2" d="M323.4-24.2H373v132.6h-49.6V-24.2z"/>
<path class="st4" d="M323.4-24.2H373v132.6h-49.6V-24.2z"/>
<path d="M334.7,56.5l11-28.6h4.1l11.7,28.6h-4.3l-3.3-8.7h-12l-3.1,8.7H334.7z M343,44.7h9.7l-3-7.9c-0.9-2.4-1.6-4.4-2-5.9
	c-0.4,1.8-0.9,3.7-1.5,5.5L343,44.7z"/>
<path class="st2" d="M372.9-24.2h49.6v132.6h-49.6V-24.2z"/>
<path class="st4" d="M372.9-24.2h49.6v132.6h-49.6V-24.2z"/>
<path d="M384.3,56.5l11-28.6h4.1l11.7,28.6h-4.3l-3.3-8.7h-12l-3.1,8.7H384.3z M392.6,44.7h9.7l-3-7.9c-0.9-2.4-1.6-4.4-2-5.9
	c-0.4,1.8-0.9,3.7-1.5,5.5L392.6,44.7z"/>
<rect x="262.4" y="162.5" class="st0" width="71.8" height="23"/>
<g class="st5">
	<path d="M267.1,178.3l6-15.7h2.2l6.4,15.7h-2.4l-1.8-4.8H271l-1.7,4.8H267.1z M271.6,171.8h5.3l-1.6-4.4c-0.5-1.3-0.9-2.4-1.1-3.3
		c-0.2,1-0.5,2-0.8,3L271.6,171.8z"/>
	<path d="M283.5,178.3v-15.8h2.1l8.3,12.4v-12.4h2v15.8h-2.1l-8.3-12.4v12.4H283.5z"/>
	<path d="M306.7,172.1v-1.8h6.7v5.8c-1,0.8-2.1,1.4-3.2,1.8c-1.1,0.4-2.2,0.6-3.4,0.6c-1.5,0-3-0.3-4.2-1c-1.3-0.7-2.2-1.6-2.9-2.9
		s-1-2.7-1-4.2s0.3-3,1-4.3c0.6-1.3,1.6-2.3,2.8-3s2.6-1,4.2-1c1.1,0,2.2,0.2,3.1,0.6c0.9,0.4,1.6,0.9,2.2,1.5
		c0.6,0.6,0.9,1.5,1.2,2.6l-1.9,0.5c-0.2-0.8-0.5-1.4-0.9-1.9s-0.9-0.8-1.5-1.1c-0.7-0.3-1.4-0.4-2.2-0.4c-1,0-1.8,0.1-2.5,0.4
		s-1.3,0.7-1.7,1.1c-0.4,0.5-0.8,1-1,1.6c-0.4,1-0.6,2-0.6,3.2c0,1.4,0.2,2.6,0.7,3.5c0.5,0.9,1.2,1.6,2.1,2.1s1.9,0.7,2.9,0.7
		c0.9,0,1.8-0.2,2.6-0.5c0.9-0.3,1.5-0.7,2-1.1V172h-4.5V172.1z"/>
	<path d="M316.5,178.3v-15.8h11.4v1.9h-9.3v4.8h8.7v1.8h-8.7v5.4h9.7v1.9H316.5z"/>
</g>
</svg>
