<?xml version="1.0" encoding="utf-8"?>
<!-- Generator: Adobe Illustrator 19.0.0, SVG Export Plug-In . SVG Version: 6.00 Build 0)  -->
<svg version="1.1" id="Lager_1" xmlns="http://www.w3.org/2000/svg" xmlns:xlink="http://www.w3.org/1999/xlink" x="0px" y="0px"
	 viewBox="4 246.9 604 348" style="enable-background:new 4 246.9 604 348;" xml:space="preserve">
<style type="text/css">
	.st0{fill:none;}
	.st1{fill-opacity:0;}
	.st2{fill:#FFFFFF;}
	.st3{fill:none;stroke:#000000;stroke-width:2;stroke-linejoin:round;stroke-miterlimit:10;}
	.st4{stroke:#000000;stroke-width:2;stroke-miterlimit:10;}
</style>
<g>
	<rect x="4" y="246.9" class="st0" width="604" height="348"/>
	<path class="st1" d="M4,246.9h604v348H4V246.9z"/>
	<path class="st2" d="M118.4,246.9h357.3v348H118.4L118.4,246.9z"/>
	<path class="st1" d="M129.4,252.7h336.9v337.7H129.4V252.7z"/>
	<path class="st3" d="M129.4,252.7h336.9v337.7H129.4V252.7z"/>
	<path class="st2" d="M407.1,287.4L407.1,287.4c0-8.4,7-15.2,15.6-15.2l0,0c4.1,0,8.1,1.6,11,4.4c2.9,2.8,4.6,6.7,4.6,10.7l0,0
		c0,8.4-7,15.2-15.6,15.2l0,0C414.1,302.6,407.1,295.8,407.1,287.4z"/>
	<path class="st3" d="M407.1,287.4L407.1,287.4c0-8.4,7-15.2,15.6-15.2l0,0c4.1,0,8.1,1.6,11,4.4c2.9,2.8,4.6,6.7,4.6,10.7l0,0
		c0,8.4-7,15.2-15.6,15.2l0,0C414.1,302.6,407.1,295.8,407.1,287.4z"/>
	<path class="st1" d="M245.6,368.9l52.6-52.6l52.6,52.6l-52.6,52.6L245.6,368.9z"/>
	<path class="st3" d="M245.6,368.9l52.6-52.6l52.6,52.6l-52.6,52.6L245.6,368.9z"/>
	<path class="st1" d="M192.8,422l52.6-52.6l52.6,52.6l-52.6,52.6L192.8,422z"/>
	<path class="st3" d="M192.8,422l52.6-52.6l52.6,52.6l-52.6,52.6L192.8,422z"/>
	<path class="st1" d="M245.6,474.1l52.6-52.6l52.6,52.6l-52.6,52.6L245.6,474.1z"/>
	<path class="st3" d="M245.6,474.1l52.6-52.6l52.6,52.6l-52.6,52.6L245.6,474.1z"/>
	<path class="st1" d="M297.9,422l52.6-52.6L403,422l-52.6,52.6L297.9,422z"/>
	<path class="st3" d="M297.9,422l52.6-52.6L403,422l-52.6,52.6L297.9,422z"/>
	<path class="st1" d="M482.7,307.8h95.9v61.6h-95.9V307.8z"/>
	<path class="st1" d="M482.7,390.7H623v61.6H482.7V390.7z"/>
	<path class="st1" d="M6.2,389.3h105.1v65.4H6.2L6.2,389.3z"/>
	<path class="st1" d="M-1,470.5h113.4v65.4H-1V470.5z"/>
	<path class="st1" d="M112.4,503.2H267"/>
	<path class="st3" d="M112.4,503.2H255"/>
	<path class="st4" d="M255,506.5l9.1-3.3l-9.1-3.3V506.5z"/>
	<path class="st1" d="M482.7,338.6H336.2"/>
	<path class="st3" d="M482.7,338.6H348.2"/>
	<path class="st4" d="M348.2,335.3l-9.1,3.3l9.1,3.3V335.3z"/>
	<path class="st1" d="M482.7,421.5h-68.5"/>
	<path class="st3" d="M482.7,421.5h-56.5"/>
	<path class="st4" d="M426.2,418.2l-9.1,3.3l9.1,3.3V418.2z"/>
	<path class="st1" d="M111.4,422h72.2"/>
	<path class="st3" d="M111.4,422h60.2"/>
	<path class="st4" d="M171.5,425.3l9.1-3.3l-9.1-3.3V425.3z"/>
	<g>
		<path d="M509.3,340.9c0,0.1,0,0.2,0,0.3c0,0.1,0,0.2,0,0.4c0,0.1,0,0.2,0,0.3c0,0.1,0,0.2-0.1,0.2c-0.1,0.1-0.2,0.2-0.3,0.2
			c-0.1,0-0.2,0-0.3,0c-0.1,0-0.2,0-0.3,0s-0.2,0.1-0.3,0.1c0,0.1,0.1,0.2,0.1,0.2c0.1,0,0.2,0,0.3,0.1s0.2,0,0.2,0.1
			s0.1,0.1,0.1,0.3c0,0.2,0,0.4-0.1,0.5s-0.1,0.3-0.2,0.4s-0.2,0.2-0.3,0.3c-0.1,0.1-0.2,0.3-0.2,0.4c-0.1,0.2-0.1,0.3-0.2,0.4
			c-0.1,0.1-0.2,0.1-0.3,0.2s-0.2,0.1-0.3,0.1c-0.1,0.1-0.2,0.1-0.3,0.3c-0.1,0.1-0.2,0.2-0.3,0.2c0,0-0.1,0-0.1,0c0,0-0.1,0-0.2,0
			c-0.1,0-0.1,0-0.1,0.1c0,0-0.1,0.1-0.1,0.1c0,0,0,0,0,0s0,0,0,0c-0.1,0.1-0.3,0.2-0.7,0.4c-0.3,0.2-0.7,0.3-1.1,0.4
			c-0.4,0.1-0.9,0.2-1.3,0.3s-0.9,0.1-1.3,0.1c-0.7,0-1.4,0-2.1-0.1c-0.7,0-1.4-0.1-2.1-0.1h-2.1c0,0-0.1,0-0.1,0.1
			s-0.1,0.1-0.2,0.1c-0.1,0-0.3,0-0.4,0s-0.4-0.1-0.5-0.2s-0.3-0.2-0.5-0.3s-0.2-0.2-0.2-0.4c0-0.1,0-0.1,0-0.1c0,0,0-0.1,0-0.1
			c0.1-0.3,0.2-0.5,0.4-0.7c0.2-0.2,0.3-0.3,0.5-0.4s0.4-0.2,0.6-0.3c0.2-0.1,0.4-0.3,0.5-0.5c0.2-0.2,0.3-0.5,0.4-0.8
			c0.1-0.4,0.2-0.8,0.2-1.4c0-0.5,0-1.1-0.1-1.6s-0.1-1.1-0.1-1.6c0-1,0-2,0.1-3c0-1,0.1-2,0.1-3l0-2.5c0-0.3,0-0.6,0-0.9
			s-0.1-0.7-0.2-1c-0.1-0.3-0.2-0.6-0.4-0.8c-0.2-0.2-0.5-0.4-0.8-0.4c-0.2,0-0.4-0.1-0.6-0.1c-0.2-0.1-0.4-0.2-0.6-0.3
			s-0.4-0.3-0.5-0.5c-0.1-0.2-0.2-0.4-0.2-0.6c0-0.2,0.1-0.3,0.2-0.4c0.1-0.1,0.2-0.2,0.4-0.3s0.3-0.1,0.5-0.2
			c0.2,0,0.3-0.1,0.5-0.1c0.3,0,0.7,0,1,0.1c0.3,0.1,0.7,0.1,1,0.1c0.4,0,0.9,0,1.3-0.1c0.4,0,0.9-0.1,1.3-0.1
			c0.4-0.1,0.9-0.1,1.3-0.1c0.4,0,0.9-0.1,1.3-0.1c0.4,0,0.7,0,1.1,0c0.4,0,0.7,0,1.1,0.1c0.1,0.1,0.2,0.2,0.3,0.2
			c0.2,0.1,0.3,0.1,0.5,0.1c0.2,0,0.4,0.1,0.5,0.1c0.2,0,0.3,0,0.4,0.1c0.3,0.1,0.5,0.1,0.6,0.2c0.2,0.1,0.3,0.1,0.5,0.2
			c0.1,0.1,0.2,0.2,0.3,0.4s0.2,0.4,0.3,0.6c0,0,0.1,0.1,0.1,0.1s0.2,0.1,0.3,0.2s0.2,0.1,0.3,0.2s0.2,0.1,0.2,0.2
			c0.1,0.1,0.3,0.3,0.4,0.6c0.1,0.3,0.3,0.6,0.4,0.9s0.2,0.6,0.3,0.9c0.1,0.3,0.1,0.5,0.1,0.7c0,0.4-0.1,0.8-0.2,1.2
			c-0.1,0.4-0.2,0.8-0.3,1.1c-0.1,0.2-0.2,0.4-0.3,0.6c-0.1,0.2-0.3,0.4-0.4,0.6s-0.3,0.4-0.4,0.6c-0.1,0.2-0.1,0.4-0.1,0.7
			c0,0.3,0.1,0.6,0.2,1c0.1,0.3,0.3,0.6,0.5,0.9c0.1,0.1,0.2,0.2,0.3,0.4c0.1,0.1,0.2,0.2,0.3,0.3s0.2,0.2,0.3,0.3
			c0.1,0.1,0.2,0.3,0.2,0.4c0.1,0.3,0.2,0.7,0.3,1S509.3,340.6,509.3,340.9z M506.3,331.4c0-0.1,0-0.3,0-0.4s-0.1-0.3-0.1-0.5
			c0-0.2-0.1-0.3-0.1-0.5c0-0.2-0.1-0.3-0.1-0.4c0-0.2-0.1-0.3-0.1-0.4c-0.1-0.1-0.1-0.2-0.2-0.3c-0.1-0.1-0.2-0.1-0.3-0.2
			c-0.1-0.1-0.2-0.1-0.3-0.2c-0.3-0.2-0.5-0.4-0.8-0.5c-0.2-0.1-0.5-0.2-0.8-0.3c-0.3-0.1-0.5-0.1-0.8-0.1c-0.3,0-0.6,0-1,0
			c-0.2,0-0.5,0-0.7,0c-0.2,0-0.5,0-0.7,0.1c0,0-0.1,0-0.1,0.1s0,0.1-0.1,0.1s-0.1,0.1-0.2,0.1c-0.1,0-0.2,0-0.4,0
			c-0.3,0-0.5,0-0.7,0.1c-0.2,0.1-0.3,0.2-0.5,0.4c-0.1,0.2-0.2,0.3-0.2,0.5c0,0.2-0.1,0.5-0.1,0.7c0,0.3,0,0.7,0,1.1
			c0,0.4,0,0.7-0.1,1.1s-0.1,0.7-0.2,1.1s-0.2,0.7-0.4,1c0.6,0.1,1.2,0.3,1.8,0.3c0.6,0.1,1.2,0.1,1.8,0.1c0.4,0,0.8,0,1.2,0
			s0.8-0.1,1.2-0.2c0.1,0,0.3-0.1,0.6-0.2c0.2-0.1,0.5-0.2,0.7-0.3s0.4-0.3,0.6-0.4s0.3-0.3,0.3-0.5c0-0.1,0.1-0.2,0.1-0.3
			c0.1-0.1,0.1-0.2,0.2-0.3c0.1-0.1,0.1-0.2,0.2-0.3C506.3,331.6,506.3,331.5,506.3,331.4z M506.8,341.8c0-0.3,0-0.5-0.1-0.8
			c-0.1-0.3-0.1-0.5-0.2-0.8c0-0.3-0.1-0.4-0.1-0.6c0-0.1-0.1-0.3-0.1-0.4s-0.1-0.2-0.2-0.3c-0.1-0.1-0.3-0.2-0.5-0.4
			c-0.1-0.2-0.1-0.4-0.2-0.4c-0.1,0-0.1-0.1-0.2-0.1c-0.1,0-0.1,0-0.2,0c-0.1,0-0.1,0-0.2,0l-0.2-0.4c-0.2-0.1-0.4-0.2-0.5-0.3
			c-0.2-0.1-0.3-0.1-0.6-0.1c-0.2,0-0.4-0.1-0.6-0.1s-0.4-0.1-0.6-0.1c-0.1,0-0.2,0-0.2,0.1c-0.1,0.1-0.1,0.1-0.1,0.1
			c-0.1,0-0.1,0-0.2,0c-0.1,0-0.2-0.1-0.3-0.1c-0.1,0-0.2-0.1-0.3-0.1c-0.1,0-0.2,0-0.3,0c-0.5,0-0.9,0-1.4,0.1
			c-0.4,0.1-0.9,0.2-1.3,0.3c-0.1,0.2-0.2,0.5-0.2,0.7c-0.1,0.3-0.1,0.5-0.2,0.8c-0.1,0.3-0.1,0.5-0.2,0.8s-0.1,0.5-0.1,0.7
			c0,0.1,0,0.2,0,0.3c0,0.1,0,0.1,0.1,0.2c0,0.1,0.1,0.1,0.1,0.2c0,0.1,0,0.1,0,0.2c0,0.4,0,0.8-0.1,1.2c-0.1,0.4-0.1,0.8-0.1,1.2
			c0,0.3,0,0.5,0.1,0.8s0.2,0.5,0.4,0.7c0.2,0,0.4,0,0.6,0.1s0.4,0.1,0.6,0.1c0.1,0,0.3,0,0.4-0.1c0.1-0.1,0.3-0.1,0.3-0.1
			s0.1,0,0.2,0.1c0,0.1,0.1,0.1,0.2,0.1h0.1c0-0.1,0.1-0.1,0.2-0.1c0.1,0,0.2-0.1,0.3-0.1s0.2,0,0.4,0c0.1,0,0.2,0,0.4,0
			c0.2,0,0.4,0,0.5,0c0.1,0,0.3,0,0.4,0c0.4-0.1,0.9-0.2,1.3-0.3c0.3-0.1,0.7-0.3,1-0.4c0.3-0.2,0.6-0.4,0.8-0.6
			c0.1-0.1,0.2-0.2,0.4-0.4s0.3-0.3,0.4-0.5s0.2-0.3,0.3-0.5C506.8,342.2,506.8,342,506.8,341.8z"/>
		<path d="M528,346.6c0,0.4-0.1,0.7-0.4,0.9s-0.5,0.4-0.9,0.5s-0.7,0.2-1.1,0.2s-0.7,0-0.9,0c-0.3,0-0.6,0-0.9-0.1s-0.4-0.1-0.6-0.2
			c-0.2-0.1-0.3-0.1-0.4-0.2s-0.3-0.1-0.4-0.1c-0.2,0-0.4,0-0.5,0.1s-0.3,0.1-0.5,0.1c-0.1,0-0.2,0-0.3-0.1c-0.1,0-0.1-0.1-0.2-0.1
			c-0.1-0.1-0.1-0.1-0.1-0.1c0,0-0.1-0.1-0.2-0.1c-0.1,0-0.1,0-0.2,0.1c0,0.1-0.1,0.1-0.1,0.2c-0.1,0.1-0.1,0.1-0.2,0.2
			c-0.1,0.1-0.2,0.1-0.4,0.1c-0.2,0-0.4,0-0.6-0.1s-0.4-0.1-0.6-0.1s-0.4,0-0.6,0.1s-0.4,0.1-0.6,0.1c-0.1,0-0.1,0-0.2-0.1
			c0-0.1-0.1-0.1-0.1-0.1c-0.2,0-0.4,0-0.6,0.1c-0.2,0.1-0.4,0.1-0.6,0.1c-0.1,0-0.2,0-0.3,0c-0.1,0-0.2,0-0.3,0
			c-0.2,0-0.4,0-0.5,0.1c-0.2,0.1-0.4,0.1-0.7,0.1c-0.1,0-0.3,0-0.6,0c-0.3,0-0.6-0.1-1-0.1c-0.3-0.1-0.6-0.1-0.9-0.2
			s-0.4-0.2-0.4-0.3c0-0.3,0-0.5,0.1-0.8c0.1-0.3,0.1-0.5,0.1-0.8v0c-0.1,0-0.2-0.1-0.2-0.2c0,0,0.1-0.1,0.1-0.1c0,0,0.1,0,0.1-0.1
			s0.1,0,0.1-0.1s0.1-0.1,0.1-0.1v-0.1c0.4,0,0.8,0.1,1.2,0.1c0.4,0,0.8,0,1.3,0c0.4,0,0.9,0,1.4,0c0.5,0,1-0.1,1.4-0.2
			s0.8-0.3,1.1-0.6c0.3-0.3,0.4-0.6,0.4-1.1v-0.1v-0.3c-0.1-1.1-0.1-2.3-0.2-3.4s-0.1-2.2-0.1-3.4c0-0.3,0-0.6-0.1-0.9
			c0-0.3-0.1-0.6-0.1-0.9c0-0.4,0.1-0.7,0.2-1.1c0.1-0.4,0.3-0.7,0.6-0.9c0-0.1,0-0.1-0.1-0.1c0,0-0.1,0-0.2-0.1c-0.1,0-0.1,0-0.2,0
			c-0.1,0-0.1,0-0.1,0c-0.1,0-0.1-0.1-0.1-0.2c0-0.1,0-0.2-0.1-0.4c0-0.1,0-0.3,0-0.4c0-0.1,0-0.2-0.1-0.3c0-0.3,0.1-0.6,0.2-0.9
			c0.1-0.3,0.1-0.6,0.1-0.9c0-0.2,0-0.4-0.1-0.5s-0.1-0.2-0.2-0.3c-0.1-0.1-0.1-0.2-0.2-0.2c-0.1-0.1-0.1-0.2-0.1-0.3
			c0-0.1,0-0.2,0.1-0.2l-0.1,0c-0.1,0-0.2,0-0.2,0.1c-0.1,0.1-0.1,0.1-0.1,0.2s-0.1,0.1-0.1,0.2c-0.1,0.1-0.1,0.1-0.2,0.1
			c-0.1,0-0.2,0-0.3,0c-0.2,0.1-0.3,0.1-0.5,0.1c-0.4,0-0.7,0-1.1-0.1c-0.4-0.1-0.7-0.1-1.1-0.1c-0.2,0-0.4,0-0.6,0s-0.4,0-0.6,0
			c-0.3,0-0.5,0-0.8-0.1s-0.5-0.2-0.7-0.4v-0.2c0-0.6,0.2-1,0.6-1.3s0.8-0.4,1.4-0.4c0.4,0,0.7,0,1.1,0.1s0.7,0.1,1.1,0.1
			c0.2,0,0.4,0,0.6-0.1c0.2,0,0.4-0.1,0.7-0.1c0.2-0.1,0.5-0.1,0.7-0.1c0.2,0,0.5-0.1,0.7-0.1c0.4,0,0.7,0.1,1,0.2
			c0.3,0.2,0.6,0.3,0.9,0.4l0,0.1c0,0.1,0,0.2,0.1,0.3s0.1,0.2,0.2,0.2s0.1,0.2,0.2,0.2s0.1,0.2,0.1,0.3s0,0.2,0,0.3
			c0,0.1,0,0.2,0,0.3c0,0.2,0,0.4,0.1,0.7c0.1,0.2,0.1,0.4,0.1,0.7c0,0.3,0,0.5-0.1,0.7c-0.1,0.2-0.1,0.5-0.1,0.7
			c0,0.3,0,0.6,0.1,0.9c0.1,0.3,0.1,0.6,0.1,0.9c0,0.3,0,0.5-0.1,0.7c-0.1,0.2-0.1,0.5-0.1,0.7c0,0.2,0,0.4,0.1,0.5s0.1,0.3,0.2,0.5
			c0.1,0.2,0.1,0.3,0.2,0.5s0.1,0.4,0.1,0.5v0.3c0,0.2,0,0.3,0,0.5c0,0.2-0.1,0.3-0.2,0.4c0.1,0.2,0.1,0.4,0.2,0.6
			c0.1,0.2,0.1,0.4,0.1,0.7c0,0.1,0,0.2,0,0.3c0,0.1,0,0.2-0.1,0.4c0,0.1-0.1,0.2-0.1,0.3c-0.1,0.1-0.1,0.2-0.2,0.2
			c0.1,0.4,0.2,0.8,0.3,1.2s0.1,0.8,0.1,1.2c0,0.1,0,0.3,0.1,0.5c0,0.2,0.1,0.4,0.1,0.6c0,0.2,0.1,0.4,0.1,0.5c0,0.2,0,0.3,0,0.3
			c0,0.2,0,0.3-0.1,0.5c-0.1,0.2-0.1,0.3-0.1,0.5c0,0.1,0,0.3,0.1,0.4c0.1,0.2,0.2,0.2,0.3,0.2c0.1,0,0.2,0,0.3-0.1
			c0.1-0.1,0.2-0.1,0.3-0.2c0.1-0.1,0.2-0.1,0.4-0.2c0.1-0.1,0.3-0.1,0.6-0.1c0.3,0,0.5,0,0.8,0.1c0.2,0.1,0.5,0.1,0.8,0.1
			c0.2,0,0.4,0,0.6-0.1c0.2,0,0.4-0.1,0.6-0.1s0.4-0.1,0.6-0.1c0.2,0,0.4-0.1,0.6-0.1c0.4,0,0.8,0.1,1.1,0.4
			C527.9,345.7,528,346.1,528,346.6z M519.1,327.1c0,0-0.1-0.1-0.1-0.1c-0.1,0-0.1-0.1-0.2-0.1c-0.1,0-0.1,0-0.1,0.1
			s-0.1,0.1-0.1,0.1l0.1,0.2c0,0,0.1,0,0.1,0c0.1,0,0.2,0,0.2-0.1C519,327.2,519,327.2,519.1,327.1z M520,331.5c0-0.1,0-0.2-0.1-0.3
			c0-0.1-0.1-0.1-0.2-0.1c0,0-0.1,0-0.1,0c0,0-0.1,0-0.1,0v0.7c0.1,0,0.1,0.1,0.2,0.1c0.1,0,0.2,0,0.2-0.1
			C520,331.6,520,331.5,520,331.5z"/>
		<path d="M546.1,344.6c0,0.2,0,0.3-0.1,0.5s-0.1,0.3-0.2,0.5c0,0.1-0.1,0.3-0.1,0.4s0,0.2-0.1,0.2c0,0.1-0.1,0.1-0.1,0.2
			c-0.1,0.1-0.2,0.1-0.3,0.2c-0.3,0.2-0.6,0.3-1,0.5s-0.7,0.3-1.1,0.3c-0.3,0-0.6-0.1-0.9-0.2s-0.5-0.3-0.7-0.5s-0.4-0.3-0.6-0.5
			c-0.2-0.1-0.3-0.2-0.5-0.2c-0.1,0-0.3,0-0.4,0.1c-0.1,0.1-0.2,0.2-0.3,0.2c-0.1,0.1-0.2,0.2-0.3,0.2c-0.1,0.1-0.3,0.1-0.4,0.1
			c-0.1,0-0.3,0-0.5,0.1c-0.2,0.1-0.3,0.1-0.5,0.2c-0.2,0.1-0.3,0.1-0.5,0.2c-0.2,0.1-0.3,0.1-0.4,0.2c-0.5,0.1-0.9,0.2-1.4,0.2
			c-0.5,0-1,0-1.4,0c-0.1,0-0.3,0-0.6,0c-0.3,0-0.5,0-0.8-0.1s-0.5-0.1-0.7-0.2c-0.2-0.1-0.3-0.3-0.3-0.4c0,0,0-0.1,0-0.1
			c-0.1,0.1-0.2,0.2-0.3,0.2c-0.1,0.1-0.2,0.1-0.3,0.1c-0.2,0-0.4-0.1-0.6-0.3c-0.2-0.2-0.5-0.5-0.7-0.8c-0.2-0.3-0.4-0.6-0.6-0.9
			s-0.2-0.5-0.2-0.7c0-0.1,0-0.2,0.1-0.3s0.1-0.2,0.1-0.3c0-0.1,0-0.3-0.1-0.4c0-0.1-0.1-0.3-0.1-0.4c0-0.2,0-0.4,0.1-0.6
			c0.1-0.2,0.2-0.4,0.3-0.6c0.1-0.2,0.2-0.4,0.3-0.6s0.2-0.4,0.3-0.6c0.1-0.2,0.3-0.4,0.4-0.5s0.4-0.2,0.6-0.3s0.4-0.2,0.6-0.3
			s0.4-0.2,0.5-0.4c0.2,0.2,0.4,0.3,0.6,0.3c0.3,0,0.5,0,0.8-0.1s0.5-0.1,0.8-0.1c0.2,0,0.4,0,0.6,0.1c0.2,0,0.4,0.1,0.6,0.1
			c0.2,0,0.4,0,0.5-0.1c0.1-0.1,0.2-0.2,0.4-0.3c0.2-0.1,0.4-0.3,0.6-0.3s0.5-0.1,0.8-0.2s0.6-0.1,0.8-0.1c0.3-0.1,0.5-0.1,0.7-0.2
			c0.2-0.1,0.4-0.2,0.5-0.4s0.2-0.4,0.2-0.7c0-0.3-0.1-0.7-0.3-1.1c-0.2-0.4-0.4-0.7-0.7-1c-0.3-0.3-0.6-0.6-1-0.8
			c-0.4-0.2-0.7-0.3-1-0.3c0,0-0.1,0-0.1,0c0,0-0.1,0-0.1,0c-0.3,0-0.5,0.1-0.8,0.1s-0.6,0.1-0.9,0.1s-0.5,0.2-0.7,0.4
			c-0.2,0.2-0.3,0.5-0.3,0.8c0,0.2,0,0.4,0.1,0.6s0.1,0.4,0.1,0.6c0,0.3-0.1,0.6-0.2,0.8c-0.2,0.2-0.3,0.4-0.6,0.5s-0.5,0.2-0.8,0.3
			s-0.6,0.1-0.8,0.1c-0.3,0-0.6,0-0.8-0.1c-0.2-0.1-0.4-0.3-0.6-0.6c-0.1-0.2-0.2-0.5-0.4-0.7c-0.1-0.3-0.2-0.5-0.2-0.8
			c0-0.3,0-0.5,0.1-0.8c0.1-0.2,0.2-0.5,0.3-0.7s0.2-0.5,0.4-0.7s0.2-0.5,0.3-0.8c0.1,0,0.2-0.1,0.3-0.1c0.1,0,0.3-0.1,0.4-0.1
			c0.2,0,0.3-0.1,0.4-0.1c0.1,0,0.3-0.1,0.4-0.1c0.3-0.1,0.5-0.2,0.7-0.3c0.2-0.1,0.5-0.2,0.7-0.3c0.2-0.1,0.5-0.2,0.7-0.2
			s0.5-0.1,0.8-0.1l0.5,0c0.4,0,0.9,0,1.4,0.1s0.9,0.2,1.4,0.4c0.4,0.2,0.9,0.4,1.3,0.6c0.4,0.2,0.8,0.5,1.1,0.9
			c0.2,0.3,0.4,0.5,0.6,0.9c0.2,0.3,0.3,0.7,0.4,1.1s0.2,0.8,0.2,1.1c0,0.4,0.1,0.7,0.1,1.1c0,0.4,0,0.9,0,1.3s0,0.9,0,1.3
			c0,0.4,0,0.8,0.1,1.2c0,0.4,0.1,0.8,0.2,1.2c0.1,0.4,0.1,0.8,0.2,1.2c0,0.4,0.1,0.8,0.1,1.2c0,0.3,0.1,0.4,0.1,0.5
			c0,0.1,0.1,0.1,0.1,0.1c0.2,0,0.4-0.1,0.6-0.2s0.3-0.3,0.4-0.5s0.2-0.3,0.4-0.5c0.1-0.1,0.3-0.2,0.5-0.2c0.1,0,0.2,0,0.3,0
			c0.1,0,0.2,0,0.3,0.1c0.1,0,0.2,0.1,0.2,0.2C546,344.4,546.1,344.5,546.1,344.6z M540.9,340.8c0-0.1,0-0.2,0-0.3s0-0.3,0-0.5
			c0-0.2-0.1-0.3-0.1-0.4s-0.1-0.2-0.2-0.2c0,0,0,0-0.1,0s-0.1,0-0.1,0c-0.4,0.2-0.7,0.4-1,0.5s-0.6,0.3-0.8,0.3
			c-0.3,0.1-0.6,0.1-0.9,0.2s-0.7,0-1.2,0c-0.1,0-0.2,0-0.5,0.1c-0.3,0.1-0.6,0.1-0.9,0.2c-0.3,0.1-0.6,0.1-0.9,0.2
			c-0.3,0.1-0.5,0.1-0.5,0.1c-0.1,0.1-0.2,0.1-0.3,0.2c-0.1,0.1-0.1,0.1-0.1,0.2s-0.1,0.1-0.1,0.2c0,0.1-0.1,0.1-0.2,0.2
			c-0.1,0.1-0.2,0.2-0.3,0.2c-0.1,0.1-0.2,0.1-0.3,0.2c-0.2,0.2-0.3,0.4-0.4,0.6c-0.1,0.3-0.2,0.5-0.2,0.7c0,0.3,0.1,0.5,0.2,0.8
			s0.3,0.4,0.6,0.6s0.5,0.3,0.8,0.4c0.3,0.1,0.6,0.2,0.9,0.3s0.6,0.1,0.9,0.1s0.5,0,0.7,0c0.3,0,0.5,0,0.9-0.1c0.3,0,0.7-0.1,1-0.2
			s0.7-0.2,1-0.3c0.3-0.1,0.5-0.3,0.7-0.5c0.1-0.1,0.1-0.2,0.2-0.2c0-0.1,0.1-0.1,0.1-0.2c0-0.1,0.1-0.1,0.1-0.2
			c0-0.1,0.1-0.2,0.2-0.2c0.2-0.2,0.4-0.4,0.6-0.7c0.1-0.2,0.2-0.5,0.3-0.8c0.1-0.3,0.1-0.5,0.1-0.8S540.9,341,540.9,340.8z
			 M540,326.9c0,0.2,0,0.4,0,0.6c0,0.2-0.1,0.4-0.1,0.5c0,0.1,0,0.1-0.1,0.2s-0.1,0.1-0.1,0.1c0,0.1,0,0.1,0,0.2c0,0.1,0,0.1,0,0.2
			c0,0.1-0.1,0.2-0.1,0.3s-0.2,0.2-0.3,0.3c-0.1,0.1-0.2,0.2-0.3,0.3c-0.1,0.1-0.2,0.1-0.3,0.2c-0.1,0-0.2,0-0.3,0.1
			c-0.1,0-0.2,0-0.3,0c-0.1,0-0.2,0-0.3,0.1s-0.2,0.1-0.2,0.2c-0.1,0.1-0.1,0.1-0.1,0.2c0,0.1-0.1,0.1-0.1,0.2
			c-0.1,0.1-0.2,0.1-0.5,0.1c-0.2,0-0.4,0-0.5,0c-0.3,0-0.6,0-0.7-0.1s-0.3-0.1-0.4-0.2s-0.2-0.2-0.3-0.3s-0.3-0.3-0.5-0.4
			c-0.1-0.1-0.2-0.1-0.3-0.2c-0.1,0-0.2-0.1-0.3-0.2c-0.2-0.2-0.3-0.4-0.4-0.6c-0.1-0.2-0.2-0.5-0.2-0.7s-0.1-0.5-0.1-0.8
			c0-0.3,0-0.5,0-0.8c0-0.2,0-0.4,0.1-0.5s0.1-0.2,0.2-0.3s0.2-0.2,0.3-0.3c0.1-0.1,0.2-0.2,0.3-0.4c0.1-0.1,0.1-0.2,0.1-0.3
			c0-0.1,0.1-0.2,0.1-0.2c0.1-0.1,0.1-0.1,0.2-0.1c0.1,0,0.1-0.1,0.2-0.1c0.1-0.1,0.1-0.1,0.1-0.2c0-0.1,0-0.1,0.1-0.2
			c0.1-0.1,0.1-0.1,0.2-0.1c0.1,0,0.2,0,0.2-0.1c0.2-0.1,0.3-0.1,0.5-0.2c0.1-0.1,0.3-0.1,0.4-0.1c0.1,0,0.3-0.1,0.4-0.1
			c0.1,0,0.3,0,0.5,0c0.1,0,0.2,0,0.4,0.1s0.3,0.1,0.4,0.2c0.1,0.1,0.3,0.1,0.4,0.2c0.1,0.1,0.2,0.2,0.2,0.3c0,0.1,0,0.1,0,0.2
			c0,0.1,0,0.1,0.1,0.2c0,0.1,0.1,0.1,0.2,0.1s0.1,0.1,0.2,0.1c0,0,0.1,0.1,0.2,0.2c0.1,0.1,0.2,0.3,0.3,0.4s0.2,0.3,0.3,0.4
			c0.1,0.1,0.2,0.2,0.2,0.3c0,0.2,0.1,0.4,0.1,0.6C540,326.6,540,326.8,540,326.9z M538.3,327.1c0-0.1,0-0.3-0.1-0.5
			s-0.1-0.4-0.3-0.5c-0.1-0.1-0.1-0.1-0.2-0.1c-0.1,0-0.1-0.1-0.2-0.1l-0.2-0.3c-0.1,0-0.1-0.1-0.2-0.1c-0.1,0-0.2,0-0.3-0.1
			s-0.2,0-0.3,0c-0.1,0-0.2,0-0.3,0c-0.1,0-0.3,0-0.5,0.1s-0.3,0.1-0.4,0.3c0,0.1,0,0.2,0,0.3s0,0.2,0,0.3s0,0.2-0.1,0.2
			c0,0.1-0.1,0.1-0.1,0.2c0,0.1,0,0.1-0.1,0.2c0,0.1,0,0.2,0,0.3c0,0.1,0,0.2-0.1,0.2c-0.1,0.1-0.1,0.2-0.1,0.3
			c0,0.1,0.1,0.3,0.2,0.5s0.3,0.3,0.4,0.4s0.3,0.2,0.5,0.3c0.2,0.1,0.3,0.1,0.5,0.1c0.1,0,0.2,0,0.3-0.1c0.1,0,0.1-0.1,0.2-0.1
			c0.1-0.1,0.1-0.1,0.2-0.2c0.1-0.1,0.1-0.1,0.2-0.2c0.1-0.1,0.2-0.2,0.3-0.3s0.2-0.2,0.3-0.3c0.1-0.1,0.2-0.2,0.3-0.3
			S538.3,327.2,538.3,327.1z"/>
	</g>
	<g>
		<path d="M510.2,419.3c0,0.1,0,0.2,0,0.3c0,0.1-0.1,0.2-0.1,0.4c0,0.1-0.1,0.2-0.2,0.3c-0.1,0.1-0.1,0.1-0.2,0.1c0,0-0.1,0-0.1,0
			c0,0-0.1,0-0.1,0c-0.1,0-0.1,0-0.2,0.1c-0.1,0.1-0.1,0.1-0.2,0.2c-0.1,0.1-0.1,0.2-0.2,0.2c-0.1,0.1-0.2,0.1-0.3,0.1
			c-0.1,0-0.1,0-0.2,0c0,0.2,0.1,0.4,0.1,0.6c0,0.2,0,0.4,0,0.6c0,0.3,0,0.7-0.1,1c0,0.3-0.1,0.6-0.1,1c-0.1,0.3-0.1,0.6-0.1,1
			c0,0.3-0.1,0.6-0.1,1c0,0.4,0,0.8,0.1,1.1s0.1,0.8,0.1,1.1c0,0.2,0,0.3,0,0.5c0,0.2-0.1,0.4-0.2,0.5s-0.2,0.3-0.3,0.4
			c-0.1,0.1-0.3,0.2-0.5,0.2c-0.3,0-0.5-0.1-0.7-0.3c-0.2-0.2-0.3-0.4-0.4-0.6c-0.1-0.2-0.2-0.4-0.3-0.6c-0.1-0.2-0.2-0.3-0.4-0.3
			c-0.1,0-0.2,0-0.3,0.1s-0.2,0.2-0.4,0.3c-0.1,0.1-0.3,0.2-0.4,0.3s-0.3,0.2-0.5,0.2c-0.2,0-0.3,0.1-0.4,0.2
			c-0.1,0.1-0.1,0.1-0.2,0.2c-0.1,0.1-0.2,0.1-0.3,0.2c-0.1,0.1-0.4,0.1-0.7,0.1c-0.2,0-0.5,0-0.7,0c-0.2,0-0.5,0-0.7,0
			c-0.2,0-0.3,0-0.5,0c-0.2,0-0.3,0-0.5,0c-0.3,0-0.5,0-0.6-0.1s-0.3-0.1-0.4-0.2c-0.1-0.1-0.3-0.1-0.4-0.2s-0.3-0.1-0.5-0.2
			c-0.2-0.1-0.3-0.1-0.4-0.1c-0.1,0-0.2-0.1-0.3-0.1s-0.2-0.1-0.3-0.2c-0.1-0.1-0.2-0.2-0.3-0.3c-0.1-0.1-0.2-0.1-0.3-0.2
			s-0.2-0.1-0.3-0.2c-0.1-0.1-0.2-0.1-0.2-0.2c-0.1-0.1-0.1-0.2-0.1-0.3c0-0.1,0-0.2,0-0.2c0,0,0-0.1-0.1-0.1c0,0-0.1,0-0.1-0.1
			s-0.1,0-0.2-0.1c-0.1-0.2-0.2-0.4-0.3-0.6c-0.1-0.2-0.1-0.4-0.2-0.6c-0.1-0.2-0.1-0.4-0.2-0.6c-0.1-0.2-0.2-0.4-0.4-0.5
			c0-0.1,0-0.2,0-0.3c0-0.2,0-0.4-0.1-0.6s-0.2-0.4-0.3-0.6s-0.2-0.4-0.3-0.6c-0.1-0.2-0.1-0.4-0.1-0.7c0-0.1,0-0.3,0-0.4
			c0-0.1,0-0.3,0-0.4c0-0.2,0-0.4-0.1-0.6s-0.1-0.4-0.1-0.6c-0.1-0.2-0.1-0.4-0.1-0.6s-0.1-0.4-0.1-0.6c0-0.1,0-0.1,0-0.2
			c0-0.1,0-0.1,0-0.2c0.1-0.4,0.1-0.8,0.1-1.1c0-0.4,0.1-0.8,0.1-1.1c0-0.4,0.1-0.8,0.1-1.1c0-0.4,0.1-0.8,0.2-1.1
			c0.1-0.4,0.2-0.7,0.2-1.1c0.1-0.4,0.1-0.7,0.1-1.1c0.1-0.1,0.2-0.2,0.3-0.4s0.3-0.3,0.4-0.4c0.1-0.1,0.3-0.3,0.4-0.4
			s0.2-0.3,0.2-0.4c0-0.1,0.1-0.3,0.3-0.5c0.1-0.2,0.3-0.4,0.5-0.6c0.2-0.2,0.4-0.4,0.6-0.5c0.2-0.1,0.4-0.2,0.5-0.3
			c0.1,0,0.1,0,0.2,0s0.2,0,0.2,0c0.1,0,0.1-0.1,0.2-0.1c0.1,0,0.1-0.1,0.1-0.2c0-0.1,0-0.2,0-0.2c0.6-0.1,1.1-0.1,1.7-0.3
			s1.1-0.2,1.7-0.2c0.1,0,0.3,0,0.6,0c0.3,0,0.5,0,0.8,0.1c0.3,0.1,0.5,0.1,0.7,0.3s0.3,0.3,0.3,0.4v0.1c0,0,0.1,0,0.1,0
			s0.1,0,0.1,0c0.2,0,0.3,0,0.5,0.1s0.3,0.1,0.5,0.1s0.3,0,0.5,0s0.4,0,0.5-0.1s0.3-0.1,0.5-0.2c0.2-0.1,0.3-0.2,0.4-0.3
			c0.2,0,0.4,0.1,0.6,0.3c0.1,0.2,0.3,0.5,0.3,0.8c0.1,0.3,0.1,0.6,0.2,0.9c0,0.3,0.1,0.5,0.1,0.7c0,0.3,0,0.5-0.1,0.8
			s-0.1,0.5-0.2,0.7c0,0.1,0.1,0.3,0.1,0.4c0.1,0.1,0.1,0.2,0.2,0.3c0.1,0.1,0.1,0.2,0.2,0.3s0.1,0.2,0.1,0.4
			c-0.1,0.2-0.1,0.5-0.1,0.8c0,0.3,0,0.7-0.1,1c0,0.3-0.1,0.7-0.3,0.9c-0.1,0.3-0.3,0.4-0.6,0.4c-0.2,0-0.4-0.1-0.5-0.2
			s-0.3-0.3-0.3-0.5l0,0c0.1,0,0.2-0.1,0.2-0.2c0,0,0-0.1-0.1-0.1c-0.1-0.1-0.1-0.1-0.2-0.2c-0.1-0.1-0.2-0.1-0.3-0.2
			c-0.1-0.1-0.1-0.1-0.2-0.2c-0.1-0.1-0.2-0.2-0.2-0.4c-0.1-0.2-0.1-0.3-0.2-0.5c-0.1-0.2-0.1-0.4-0.1-0.6c0-0.2,0-0.4,0-0.5
			c0-0.1,0-0.1,0-0.1c0,0,0-0.1,0-0.1l0,0c0,0-0.1-0.1-0.2-0.2s-0.2-0.3-0.3-0.4c-0.1-0.2-0.2-0.3-0.3-0.4s-0.2-0.2-0.2-0.3
			c-0.2-0.2-0.4-0.4-0.7-0.6c-0.2-0.2-0.5-0.4-0.7-0.6c-0.1,0.1-0.2,0.1-0.3,0.1c-0.1,0-0.2,0.1-0.3,0.1c-0.1,0-0.2,0-0.2-0.1
			c-0.1,0-0.1-0.1-0.2-0.1s-0.1-0.1-0.2-0.1c-0.1,0-0.1-0.1-0.3-0.1c-0.2,0-0.5,0-0.7,0.1c-0.2,0.1-0.4,0.1-0.7,0.1
			c-0.2,0-0.5,0-0.7-0.1s-0.5-0.1-0.7-0.1c0,0,0,0-0.1,0c0,0-0.1,0-0.1,0c0,0.1,0,0.2,0.1,0.3c0,0.1,0.1,0.2,0.1,0.3
			c0,0.1-0.1,0.3-0.2,0.4c-0.1,0.1-0.3,0.3-0.4,0.4s-0.3,0.2-0.5,0.4c-0.2,0.1-0.3,0.2-0.4,0.3c-0.1,0.1-0.2,0.3-0.3,0.5
			c-0.1,0.2-0.1,0.3-0.2,0.5c-0.1,0.2-0.1,0.3-0.2,0.5c-0.1,0.1-0.2,0.3-0.4,0.4c0.1,0.2,0.1,0.4,0.1,0.6c0,0.1,0,0.3,0,0.4
			c0,0.1,0,0.3,0,0.4c0,0.3,0,0.7,0.1,1s0.1,0.7,0.1,1c0,0.3,0,0.5-0.1,0.8s-0.1,0.5-0.2,0.8s-0.1,0.5-0.2,0.8s-0.1,0.5-0.1,0.8
			c0,0.2,0,0.5,0.1,0.7s0.1,0.4,0.2,0.6c0.1,0.2,0.1,0.4,0.2,0.6s0.1,0.4,0.1,0.5c0,0.1,0,0.2,0,0.3c0,0.1,0,0.2,0,0.3
			c0,0.4,0.1,0.8,0.3,1.1c0.2,0.3,0.4,0.6,0.7,0.9c0.3,0.3,0.5,0.5,0.7,0.8c0.2,0.3,0.4,0.6,0.5,1c0.2,0,0.3,0,0.5,0
			c0.2,0,0.4,0,0.6,0.1c0.2,0,0.4,0.1,0.5,0.1c0.2,0.1,0.4,0.1,0.5,0.1c0.2,0,0.4,0.1,0.6,0.1c0.4,0,0.8-0.1,1.2-0.2
			c0.4-0.2,0.8-0.4,1.1-0.6c0.3-0.3,0.7-0.6,0.9-0.9c0.3-0.4,0.4-0.7,0.5-1.1c0.1-0.4,0.2-0.7,0.4-1.1c0.1-0.1,0.1-0.2,0.2-0.2
			s0.1-0.1,0.2-0.1c0.1,0,0.1,0,0.1,0c0,0,0,0,0-0.1s0-0.1-0.1-0.2c-0.1-0.1-0.1-0.1-0.1-0.2c0,0,0-0.1,0.1-0.1s0.1-0.1,0.1-0.2
			s0.1-0.1,0.1-0.2c0-0.1,0.1-0.2,0.1-0.3c0-0.2-0.1-0.4-0.2-0.5c-0.1-0.1-0.3-0.3-0.5-0.4c-0.2-0.1-0.4-0.2-0.6-0.3
			s-0.4-0.2-0.6-0.3c-0.2-0.1-0.3-0.3-0.5-0.4s-0.2-0.4-0.2-0.7c0-0.2,0.1-0.4,0.2-0.6c0.1-0.2,0.3-0.3,0.5-0.4s0.4-0.2,0.6-0.2
			s0.4-0.1,0.6-0.1c0.1,0,0.3-0.1,0.4-0.1c0.1-0.1,0.3-0.1,0.4-0.2c0.1-0.1,0.3-0.1,0.4-0.2s0.2-0.1,0.4-0.1c0.1,0,0.3,0,0.4,0.1
			c0.1,0.1,0.3,0.1,0.4,0.1c0.2,0,0.4,0.1,0.7,0.1c0.3,0.1,0.6,0.1,0.9,0.2c0.3,0.1,0.5,0.2,0.7,0.4S510.2,419,510.2,419.3z"/>
		<path d="M531.1,428.9c0,0.2-0.1,0.4-0.2,0.6c-0.1,0.2-0.3,0.4-0.5,0.6s-0.4,0.3-0.6,0.4s-0.4,0.2-0.6,0.2c-0.3,0-0.6,0-1-0.1
			s-0.6-0.1-1-0.1c-0.2,0-0.3,0-0.5,0s-0.3-0.1-0.4-0.2c-0.2,0-0.4-0.1-0.5-0.3s-0.2-0.3-0.3-0.5c-0.1-0.2-0.2-0.3-0.3-0.5
			s-0.2-0.3-0.4-0.3c-0.6,0.3-1.1,0.5-1.6,0.8c-0.5,0.2-0.9,0.5-1.3,0.6s-0.9,0.3-1.4,0.4s-1.1,0.2-1.8,0.2c-0.3,0-0.5,0-0.6,0
			s-0.2-0.1-0.3-0.1s-0.1-0.2-0.2-0.3s-0.2-0.3-0.3-0.4c-0.1-0.1-0.2-0.1-0.2-0.1s-0.2,0-0.2,0h-0.1c-0.1,0-0.2,0-0.3-0.1
			c-0.1,0-0.1-0.1-0.2-0.3c0-0.1-0.1-0.3-0.2-0.4c-0.1-0.2-0.2-0.3-0.3-0.5c-0.1-0.2-0.2-0.3-0.4-0.5c-0.1-0.1-0.2-0.2-0.3-0.3
			l0-1.5c0-1,0-2.1,0.1-3.1c0.1-1,0.1-2.1,0.1-3.1c0-0.2,0-0.4,0-0.6c0-0.3,0-0.6-0.1-0.8s-0.1-0.5-0.2-0.8
			c-0.1-0.2-0.2-0.4-0.4-0.4c-0.2-0.1-0.5-0.1-0.7-0.1c-0.2,0-0.5,0-0.7,0c-0.2,0-0.5,0-0.7-0.1s-0.4-0.2-0.6-0.4
			c-0.1-0.1-0.2-0.3-0.3-0.4c-0.1-0.2-0.1-0.3-0.1-0.5c0-0.3,0.1-0.5,0.3-0.7c0.2-0.2,0.5-0.3,0.8-0.4c0.3-0.1,0.6-0.2,1-0.3
			c0.3-0.1,0.6-0.1,0.8-0.1c0.6,0,1.1,0.1,1.6,0.3s1,0.5,1.4,0.8c0,0,0,0,0,0.1c0,0,0,0,0,0c0,0.3,0.1,0.6,0.1,0.9s0.1,0.6,0.1,0.9
			c0,0.2,0,0.3-0.1,0.5c0,0.1-0.1,0.3-0.1,0.5c0,0.2,0,0.4,0.1,0.5c0,0.2,0.1,0.4,0.1,0.5c0,0.1,0,0.2,0,0.3c0,0.1,0,0.2,0,0.3
			c0,0.3,0,0.6,0.1,0.9c0.1,0.3,0.1,0.6,0.1,0.9c0,0.3,0,0.6-0.1,0.8s-0.1,0.5-0.2,0.8c-0.1,0.3-0.1,0.5-0.2,0.8s-0.1,0.5-0.1,0.8
			c0,0.4,0.1,0.7,0.2,1.1c0.2,0.3,0.4,0.6,0.6,0.9c0.3,0.2,0.6,0.4,0.9,0.6s0.7,0.2,1.1,0.2c0.3,0,0.6,0,0.8-0.1
			c0.2-0.1,0.4-0.1,0.5-0.2c0.1-0.1,0.2-0.2,0.3-0.2c0.1-0.1,0.2-0.1,0.2-0.1s0.2,0,0.2,0s0.1,0,0.2,0c0.1,0,0.3,0,0.4-0.1
			s0.2-0.1,0.3-0.2c0.1-0.1,0.2-0.2,0.2-0.2s0.2-0.1,0.3-0.2c0.2-0.1,0.4-0.1,0.6-0.2c0.2-0.1,0.3-0.3,0.3-0.6c0-0.1,0-0.1,0-0.1
			c0,0,0.1-0.1,0.1-0.1c0.1,0,0.1,0,0.1,0c0,0,0.1,0,0.1,0.1c0.1,0,0.1-0.1,0.1-0.2c0-0.1,0-0.1,0.1-0.2c0.1-0.2,0.1-0.4,0.3-0.5
			c0.1-0.1,0.2-0.3,0.2-0.5c0-0.2,0.1-0.4,0.2-0.6c0.1-0.2,0.1-0.4,0.1-0.6c0-0.2,0-0.3-0.1-0.5c-0.1-0.1-0.1-0.3-0.1-0.5
			c0-0.2,0-0.4,0.1-0.6c0.1-0.2,0.1-0.4,0.1-0.6c-0.1-0.1-0.1-0.2-0.2-0.3c-0.1-0.1-0.1-0.2-0.1-0.3c0-0.2,0-0.3,0.1-0.4
			c0.1-0.1,0.1-0.1,0.1-0.2c0-0.1,0-0.2-0.1-0.3c0-0.1-0.1-0.2-0.2-0.3s-0.1-0.2-0.2-0.3s-0.1-0.2-0.1-0.3c0-0.1,0-0.2,0.1-0.3
			c0-0.1,0.1-0.2,0.1-0.3c0-0.2,0-0.3-0.1-0.4c-0.1-0.1-0.2-0.2-0.3-0.3c-0.1-0.1-0.3-0.2-0.4-0.2s-0.3-0.1-0.4-0.1
			c-0.3,0-0.5,0-0.7,0s-0.4,0-0.5-0.1s-0.3-0.1-0.4-0.3s-0.2-0.3-0.4-0.6c-0.1-0.2-0.1-0.3-0.1-0.4c0-0.3,0.1-0.5,0.3-0.6
			c0.2-0.2,0.5-0.3,0.8-0.3s0.6-0.1,0.9-0.2c0.3,0,0.5,0,0.7,0c0.2,0,0.3,0,0.5,0c0.2,0,0.3,0,0.5,0c0.2,0,0.4,0,0.5-0.1
			c0.2-0.1,0.3-0.1,0.5-0.1c0.3,0,0.5,0.1,0.6,0.2s0.3,0.3,0.4,0.5c0.1,0.2,0.1,0.5,0.2,0.8c0,0.3,0,0.6,0,0.9c0,0.4,0,0.8,0,1.1
			s0,0.6,0,0.8c0,0.4,0,0.9,0.1,1.3s0.1,0.8,0.1,1.1c0,0.1,0,0.2-0.1,0.3c0,0.1-0.1,0.2-0.1,0.3c-0.1,0.1-0.1,0.2-0.1,0.3
			c0,0.1-0.1,0.2-0.1,0.3c0,0.1,0,0.2,0,0.2l0.1,0.9c-0.1,0-0.1,0.1-0.1,0.2s0,0.1,0,0.2c0,0.2,0,0.3,0.1,0.5c0,0.2,0.1,0.3,0.1,0.5
			c0,0.2,0,0.4-0.1,0.6c0,0.2-0.1,0.4-0.1,0.6c0,0.5,0.2,0.8,0.5,1.1c0.3,0.3,0.7,0.4,1.2,0.4c0.3,0,0.5,0,0.8-0.1
			c0.1,0.2,0.2,0.3,0.3,0.4c0.1,0.1,0.3,0.2,0.4,0.4c0.1,0.1,0.2,0.2,0.3,0.4C531.1,428.5,531.1,428.7,531.1,428.9z"/>
		<path d="M548.8,429.1c0,0.4-0.1,0.7-0.4,0.9c-0.2,0.2-0.5,0.4-0.9,0.5s-0.7,0.2-1.1,0.2s-0.7,0-0.9,0c-0.3,0-0.6,0-0.9-0.1
			s-0.4-0.1-0.6-0.2s-0.3-0.1-0.4-0.2s-0.3-0.1-0.4-0.1c-0.2,0-0.4,0-0.5,0.1s-0.3,0.1-0.5,0.1c-0.1,0-0.2,0-0.3-0.1
			s-0.1-0.1-0.2-0.1s-0.1-0.1-0.1-0.1s-0.1-0.1-0.2-0.1c-0.1,0-0.1,0-0.2,0.1s-0.1,0.1-0.1,0.2s-0.1,0.1-0.2,0.2s-0.2,0.1-0.4,0.1
			c-0.2,0-0.4,0-0.6-0.1s-0.4-0.1-0.6-0.1s-0.4,0-0.6,0.1s-0.4,0.1-0.6,0.1c-0.1,0-0.1,0-0.2-0.1s-0.1-0.1-0.1-0.1
			c-0.2,0-0.4,0-0.6,0.1s-0.4,0.1-0.6,0.1c-0.1,0-0.2,0-0.3,0s-0.2,0-0.3,0c-0.2,0-0.4,0-0.5,0.1s-0.4,0.1-0.7,0.1
			c-0.1,0-0.3,0-0.6,0s-0.6-0.1-1-0.1s-0.6-0.1-0.9-0.2s-0.4-0.2-0.4-0.3c0-0.3,0-0.5,0.1-0.8c0.1-0.3,0.1-0.5,0.1-0.8v0
			c-0.1,0-0.2-0.1-0.2-0.2c0,0,0.1-0.1,0.1-0.1c0,0,0.1,0,0.1-0.1s0.1,0,0.1-0.1s0.1-0.1,0.1-0.1v-0.1c0.4,0,0.8,0.1,1.2,0.1
			c0.4,0,0.8,0,1.3,0c0.4,0,0.9,0,1.4,0c0.5,0,1-0.1,1.4-0.2s0.8-0.3,1.1-0.6c0.3-0.3,0.4-0.6,0.4-1.1V426v-0.3
			c-0.1-1.1-0.1-2.3-0.2-3.4s-0.1-2.2-0.1-3.4c0-0.3,0-0.6-0.1-0.9c0-0.3-0.1-0.6-0.1-0.9c0-0.4,0.1-0.7,0.2-1.1
			c0.1-0.4,0.3-0.7,0.6-0.9c0-0.1,0-0.1-0.1-0.1c0,0-0.1,0-0.2-0.1c-0.1,0-0.1,0-0.2,0c-0.1,0-0.1,0-0.1,0c-0.1,0-0.1-0.1-0.1-0.2
			c0-0.1,0-0.2-0.1-0.4c0-0.1,0-0.3,0-0.4c0-0.1,0-0.2-0.1-0.3c0-0.3,0.1-0.6,0.2-0.9c0.1-0.3,0.1-0.6,0.1-0.9c0-0.2,0-0.4-0.1-0.5
			s-0.1-0.2-0.2-0.3c-0.1-0.1-0.1-0.2-0.2-0.2c-0.1-0.1-0.1-0.2-0.1-0.3c0-0.1,0-0.2,0.1-0.2l-0.1,0c-0.1,0-0.2,0-0.2,0.1
			c-0.1,0.1-0.1,0.1-0.1,0.2s-0.1,0.1-0.1,0.2c-0.1,0.1-0.1,0.1-0.2,0.1c-0.1,0-0.2,0-0.3,0c-0.2,0.1-0.3,0.1-0.5,0.1
			c-0.4,0-0.7,0-1.1-0.1c-0.4-0.1-0.7-0.1-1.1-0.1c-0.2,0-0.4,0-0.6,0s-0.4,0-0.6,0c-0.3,0-0.5,0-0.8-0.1s-0.5-0.2-0.7-0.4v-0.2
			c0-0.6,0.2-1,0.6-1.3s0.8-0.4,1.4-0.4c0.4,0,0.7,0,1.1,0.1s0.7,0.1,1.1,0.1c0.2,0,0.4,0,0.6-0.1c0.2,0,0.4-0.1,0.7-0.1
			c0.2-0.1,0.5-0.1,0.7-0.1c0.2,0,0.5-0.1,0.7-0.1c0.4,0,0.7,0.1,1,0.2c0.3,0.2,0.6,0.3,0.9,0.4l0,0.1c0,0.1,0,0.2,0.1,0.3
			s0.1,0.2,0.2,0.2s0.1,0.2,0.2,0.2s0.1,0.2,0.1,0.3s0,0.2,0,0.3c0,0.1,0,0.2,0,0.3c0,0.2,0,0.4,0.1,0.7c0.1,0.2,0.1,0.4,0.1,0.7
			c0,0.3,0,0.5-0.1,0.7c-0.1,0.2-0.1,0.5-0.1,0.7c0,0.3,0,0.6,0.1,0.9c0.1,0.3,0.1,0.6,0.1,0.9c0,0.3,0,0.5-0.1,0.7
			c-0.1,0.2-0.1,0.5-0.1,0.7c0,0.2,0,0.4,0.1,0.5s0.1,0.3,0.2,0.5c0.1,0.2,0.1,0.3,0.2,0.5s0.1,0.4,0.1,0.5v0.3c0,0.2,0,0.3,0,0.5
			c0,0.2-0.1,0.3-0.2,0.4c0.1,0.2,0.1,0.4,0.2,0.6c0.1,0.2,0.1,0.4,0.1,0.7c0,0.1,0,0.2,0,0.3c0,0.1,0,0.2-0.1,0.4
			c0,0.1-0.1,0.2-0.1,0.3c-0.1,0.1-0.1,0.2-0.2,0.2c0.1,0.4,0.2,0.8,0.3,1.2s0.1,0.8,0.1,1.2c0,0.1,0,0.3,0.1,0.5
			c0,0.2,0.1,0.4,0.1,0.6c0,0.2,0.1,0.4,0.1,0.5c0,0.2,0,0.3,0,0.3c0,0.2,0,0.3-0.1,0.5c-0.1,0.2-0.1,0.3-0.1,0.5
			c0,0.1,0,0.3,0.1,0.4c0.1,0.2,0.2,0.2,0.3,0.2c0.1,0,0.2,0,0.3-0.1c0.1-0.1,0.2-0.1,0.3-0.2c0.1-0.1,0.2-0.1,0.4-0.2
			c0.1-0.1,0.3-0.1,0.6-0.1c0.3,0,0.5,0,0.8,0.1c0.2,0.1,0.5,0.1,0.8,0.1c0.2,0,0.4,0,0.6-0.1c0.2,0,0.4-0.1,0.6-0.1
			s0.4-0.1,0.6-0.1c0.2,0,0.4-0.1,0.6-0.1c0.4,0,0.8,0.1,1.1,0.4C548.7,428.3,548.8,428.6,548.8,429.1z M539.8,409.6
			c0,0-0.1-0.1-0.1-0.1c-0.1,0-0.1-0.1-0.2-0.1c-0.1,0-0.1,0-0.1,0.1s-0.1,0.1-0.1,0.1l0.1,0.2c0,0,0.1,0,0.1,0c0.1,0,0.2,0,0.2-0.1
			C539.8,409.7,539.8,409.7,539.8,409.6z M540.8,414c0-0.1,0-0.2-0.1-0.3c0-0.1-0.1-0.1-0.2-0.1c0,0-0.1,0-0.1,0c0,0-0.1,0-0.1,0
			v0.7c0.1,0,0.1,0.1,0.2,0.1c0.1,0,0.2,0,0.2-0.1C540.8,414.1,540.8,414.1,540.8,414z"/>
	</g>
	<g>
		<path d="M63.8,427.4c0,0.1,0,0.2,0,0.4c0,0.2-0.1,0.3-0.2,0.3c-0.1,0.1-0.2,0.1-0.2,0.3c0,0.1,0,0.3,0,0.4s0,0.2,0,0.3
			c0,0.1-0.1,0.1-0.1,0.1c-0.1,0-0.1,0-0.1,0c0,0-0.1,0-0.1,0c-0.1,0-0.1,0-0.2,0.1c-0.1,0.1-0.1,0.1-0.1,0.2c0,0.1,0,0.1,0.1,0.1
			c0,0,0.1,0.1,0.1,0.1c0,0-0.1,0.1-0.2,0.1c-0.2,0.1-0.3,0.1-0.5,0.2c-0.2,0.1-0.4,0.1-0.6,0.1s-0.3,0.1-0.4,0.1
			c-0.4,0-0.8-0.1-1.1-0.2c-0.4-0.1-0.7-0.3-1.1-0.4c-0.4-0.1-0.7-0.4-0.9-0.7c-0.2-0.3-0.4-0.7-0.4-1.1c-0.1-0.4-0.2-0.8-0.2-1.3
			s-0.1-0.8-0.3-1.2c-0.1-0.2-0.1-0.3-0.1-0.4c0-0.1,0-0.2,0-0.3c0-0.1,0.1-0.1,0.1-0.2c0,0,0.1-0.1,0.1-0.1c0,0,0-0.1,0-0.1
			c0-0.1,0-0.3-0.1-0.4c-0.1-0.1-0.1-0.3-0.1-0.5c0-0.1,0-0.2,0-0.3c0-0.1,0-0.2,0-0.3c0-0.4,0-0.7-0.1-1c-0.1-0.3-0.2-0.5-0.3-0.7
			c-0.1-0.2-0.3-0.4-0.4-0.6c-0.2-0.2-0.3-0.5-0.5-0.8c-0.1,0-0.2,0-0.3,0c-0.1,0-0.2,0-0.3,0c-0.2,0-0.4,0-0.6,0
			c-0.2,0-0.4,0-0.6,0c-0.2,0-0.4,0-0.7,0.1c-0.2,0-0.5,0.1-0.7,0.1c-0.1,0-0.3,0-0.4-0.1c-0.1,0-0.3-0.1-0.4-0.1
			c-0.2,0-0.4,0-0.5,0.1c-0.2,0.1-0.3,0.2-0.5,0.3c-0.1,0.1-0.3,0.3-0.4,0.4c-0.1,0.2-0.1,0.3-0.1,0.5v0.5c0,0.9-0.1,1.8-0.2,2.7
			c0,0.1,0,0.3-0.1,0.4c0,0.1,0,0.3,0,0.4c0,0.4,0.1,0.8,0.3,1c0.2,0.3,0.4,0.5,0.6,0.6c0.3,0.2,0.5,0.3,0.8,0.4
			c0.3,0.1,0.6,0.2,0.8,0.3s0.5,0.2,0.6,0.4s0.3,0.4,0.3,0.6c0,0.1,0,0.2-0.1,0.3c0,0.1-0.1,0.2-0.1,0.3c-0.1,0.2-0.3,0.4-0.4,0.5
			c-0.1,0.1-0.3,0.2-0.4,0.3s-0.3,0.1-0.5,0.1c-0.2,0-0.4,0.1-0.6,0.1c-0.2,0-0.4,0.1-0.6,0.1c-0.2,0-0.4,0-0.6,0
			c-0.3,0-0.6,0-0.9-0.1s-0.6-0.1-0.9-0.1c-0.2,0-0.4,0-0.7,0.1c-0.2,0-0.4,0.1-0.7,0.1s-0.4,0.1-0.7,0.1s-0.4,0.1-0.7,0.1
			c-0.1,0-0.3,0-0.5,0s-0.3-0.1-0.5-0.2c-0.1-0.1-0.3-0.2-0.4-0.3c-0.1-0.1-0.1-0.3-0.1-0.5c0-0.1,0-0.3,0.1-0.4
			c0.1-0.1,0.2-0.2,0.3-0.3c0.1-0.1,0.2-0.2,0.4-0.2c0.1-0.1,0.3-0.1,0.4-0.1c0.1,0,0.2,0,0.3,0s0.1,0,0.2,0c0.1,0,0.1-0.1,0.2-0.1
			c0.1,0,0.1-0.1,0.2-0.2c0.1-0.1,0.1-0.1,0.1-0.1s0.1,0,0.2,0c0.1,0,0.1,0,0.2,0c0.1,0,0.1,0,0.2,0c0.1,0,0.2,0,0.3-0.1
			c0.2-0.1,0.4-0.3,0.5-0.5c0.1-0.2,0.2-0.4,0.2-0.6s0-0.5,0.1-0.7c0-0.3,0-0.5,0.1-0.7c0.1-0.2,0.1-0.4,0.1-0.6
			c0-0.4,0-0.7-0.1-1.1c-0.1-0.4-0.1-0.7-0.1-1.1c0-0.4,0-0.9,0.1-1.3s0.1-0.9,0.1-1.3c0-0.1,0-0.2,0-0.3c0-0.1,0-0.2,0-0.3
			c0-0.8,0-1.5,0.1-2.2c0.1-0.7,0.1-1.5,0.1-2.2c0-0.2,0-0.4,0-0.6c0-0.2,0-0.4,0-0.6c0-0.2,0-0.4-0.1-0.6c0-0.2-0.1-0.5-0.1-0.8
			c0-0.3-0.1-0.5-0.2-0.8c-0.1-0.3-0.2-0.5-0.3-0.7c-0.1-0.2-0.3-0.4-0.4-0.5c-0.2-0.1-0.4-0.2-0.6-0.2c-0.1,0-0.1,0-0.2,0
			c-0.1,0-0.1,0-0.2,0c-0.1,0-0.2,0-0.3-0.1c-0.1-0.1-0.1-0.2-0.2-0.3c0-0.1-0.1-0.2-0.1-0.3c0-0.1,0-0.2,0-0.3
			c0-0.4,0.1-0.6,0.3-0.8c0.2-0.2,0.4-0.3,0.7-0.3s0.6-0.1,0.9-0.1c0.3,0,0.6,0,0.8,0c0.3,0,0.5-0.1,0.8-0.1
			c0.3-0.1,0.5-0.1,0.8-0.1c0.4,0,0.8,0.1,1.2,0.2c0.4,0.1,0.8,0.2,1.2,0.2c0.3,0,0.7,0,1-0.1c0.3-0.1,0.6-0.1,0.9-0.2
			c0.2-0.1,0.3-0.1,0.4-0.1c0.4,0,0.8,0.1,1.2,0.2c0.4,0.1,0.8,0.2,1.2,0.2c0.3,0,0.6,0.1,0.8,0.1c0.3,0.1,0.6,0.2,0.8,0.3
			c0.3,0.1,0.5,0.3,0.7,0.5s0.3,0.5,0.4,0.8c0,0.2,0.1,0.3,0.2,0.5c0.1,0.2,0.2,0.3,0.4,0.4c0.1,0.1,0.2,0.3,0.3,0.4
			c0.1,0.1,0.1,0.2,0.1,0.3c0,0.1,0,0.1-0.1,0.2c-0.1,0-0.1,0.1-0.1,0.2c0,0.1,0,0.1,0.1,0.2c0.1,0.1,0.1,0.1,0.2,0.2
			c0.1,0.1,0.2,0.2,0.2,0.3c0.1,0.1,0.1,0.2,0.1,0.3c0,0.2,0,0.3-0.1,0.4c-0.1,0.1-0.1,0.3-0.1,0.4l0,0l0.2-0.1l0,0
			c0,0.2,0.1,0.3,0.1,0.5c0,0.2,0,0.3,0,0.5c0,0.2,0,0.4,0,0.7c0,0.2,0,0.5-0.1,0.7c0,0.2-0.1,0.4-0.2,0.6c-0.1,0.2-0.2,0.4-0.4,0.5
			c-0.1,0.1-0.2,0.1-0.3,0.2c-0.1,0-0.2,0.1-0.3,0.1s-0.2,0.1-0.3,0.2c-0.1,0.1-0.1,0.2-0.2,0.3c-0.1,0.2-0.1,0.3-0.3,0.5
			s-0.3,0.3-0.4,0.5c-0.1,0.2-0.2,0.3-0.3,0.5c-0.1,0.2-0.1,0.3-0.1,0.5c0,0.3,0.1,0.6,0.2,0.8c0.1,0.3,0.3,0.5,0.4,0.8
			c0.1,0.3,0.2,0.6,0.3,0.9c0.1,0.3,0.1,0.6,0.1,0.9c0,0.3,0,0.6,0.1,0.9c0,0.3,0,0.6,0.1,0.9c0,0.1,0.1,0.3,0.1,0.6
			c0.1,0.3,0.2,0.6,0.3,0.9c0.1,0.3,0.2,0.5,0.4,0.8c0.1,0.2,0.3,0.3,0.5,0.3c0.1,0,0.2-0.1,0.3-0.2c0.1-0.1,0.2-0.3,0.2-0.5
			s0.2-0.4,0.3-0.5c0.1-0.2,0.2-0.3,0.4-0.4c0.3,0,0.6,0.1,0.8,0.2c0.2,0.1,0.4,0.2,0.5,0.4c0.1,0.2,0.2,0.4,0.2,0.6
			S63.8,427.1,63.8,427.4z M59.1,413.1c0-0.1,0-0.3-0.1-0.5c-0.1-0.2-0.1-0.4-0.2-0.6c-0.1-0.2-0.2-0.4-0.3-0.6
			c-0.1-0.2-0.2-0.3-0.3-0.4c-0.2,0-0.4,0-0.4,0c-0.1,0-0.1-0.1-0.1-0.1c0,0,0-0.1-0.1-0.2c0-0.1-0.1-0.1-0.2-0.2
			c-0.4-0.2-0.7-0.3-1-0.4c-0.3-0.1-0.6-0.1-1-0.1c-0.1,0-0.2,0-0.3,0.1s-0.2,0.1-0.3,0.1c-0.2,0-0.5,0-0.7-0.1
			c-0.2-0.1-0.5-0.1-0.7-0.1c-0.3,0-0.7,0-1.1,0.1c-0.2,0.1-0.5,0.1-0.7,0.2c-0.2,0.1-0.5,0.1-0.6,0.2c-0.2,0.1-0.3,0.2-0.5,0.4
			c-0.1,0.2-0.2,0.4-0.2,0.7c0,0.3,0,0.6,0.1,1c0.1,0.3,0.1,0.6,0.1,1c0,0.2,0,0.3-0.1,0.5c0,0.1-0.1,0.3-0.1,0.4
			c-0.1,0.1-0.1,0.3-0.1,0.4c0,0.1-0.1,0.3-0.1,0.5c0,0.2,0,0.4,0.1,0.6c0,0.2,0.1,0.4,0.2,0.5c0.1,0.2,0.2,0.3,0.4,0.4
			c0.2,0.1,0.3,0.1,0.6,0.1c0.2,0,0.4,0,0.6-0.1c0.2-0.1,0.4-0.1,0.6-0.1c0.1,0,0.2,0,0.3,0.1c0.1,0.1,0.2,0.1,0.3,0.2
			c0.1,0.1,0.2,0.1,0.3,0.2c0.1,0.1,0.2,0.1,0.4,0.1c0.1,0,0.2,0,0.3,0c0.1,0,0.2-0.1,0.3-0.1c0.4-0.2,0.8-0.3,1.3-0.5
			c0.4-0.1,0.9-0.2,1.3-0.2c0.1,0,0.3-0.1,0.4-0.2c0.2-0.1,0.3-0.3,0.5-0.5c0.2-0.2,0.3-0.4,0.5-0.7c0.2-0.2,0.3-0.5,0.4-0.7
			c0.1-0.2,0.2-0.5,0.3-0.7S59.1,413.2,59.1,413.1z"/>
		<path d="M81.6,423.1c0,0.1,0,0.3-0.1,0.4c0,0.1-0.1,0.2-0.2,0.3c-0.1,0.1-0.1,0.2-0.2,0.2s-0.1,0.1-0.1,0.1c0,0.1,0,0.2,0.1,0.3
			c0.1,0.1,0.1,0.2,0.1,0.4c0,0.1,0,0.1-0.1,0.1c0,0-0.1,0-0.1,0c-0.1,0-0.2,0-0.2,0c0,0.2,0,0.4,0.1,0.6c0,0.2,0,0.4,0,0.6
			c0,0.3,0,0.5-0.1,0.6c-0.1,0.1-0.1,0.1-0.2,0.2c-0.1,0-0.1,0-0.2,0.1c-0.1,0-0.1,0.1-0.1,0.3c0,0.1-0.1,0.2-0.2,0.4
			c-0.1,0.1-0.3,0.3-0.5,0.4c-0.2,0.1-0.4,0.3-0.6,0.4c-0.2,0.1-0.3,0.2-0.5,0.2c0,0-0.1,0-0.1,0c0,0.1,0,0.2,0,0.3
			c0,0.1,0,0.2,0,0.3c0,0.1,0,0.2-0.1,0.3c-0.1,0-0.2,0.1-0.3,0.1c-0.2,0.1-0.3,0.2-0.5,0.3c-0.2,0.1-0.3,0.3-0.5,0.4
			c-0.2,0.1-0.4,0.3-0.5,0.4c-0.2,0.1-0.4,0.2-0.6,0.2c-0.2,0-0.3,0-0.5-0.1s-0.3-0.1-0.5-0.1c-0.2,0-0.3,0-0.4,0.1
			c-0.1,0-0.2,0.1-0.3,0.2c-0.1,0.1-0.2,0.1-0.3,0.2c-0.1,0-0.2,0.1-0.4,0.1c-0.3,0-0.5-0.1-0.8-0.2c-0.3-0.1-0.5-0.3-0.8-0.3
			c-0.1-0.1-0.3-0.1-0.5-0.1c-0.2,0-0.3-0.1-0.5-0.1s-0.3-0.1-0.4-0.1s-0.3-0.2-0.4-0.3c-0.2-0.3-0.5-0.5-0.8-0.7
			c-0.3-0.2-0.6-0.3-0.9-0.5c-0.3-0.2-0.6-0.3-0.9-0.5s-0.5-0.4-0.7-0.7c-0.2-0.2-0.3-0.5-0.5-0.7c-0.2-0.3-0.4-0.5-0.6-0.8
			s-0.3-0.6-0.4-0.9c-0.1-0.3-0.2-0.6-0.2-0.9c0-0.2,0-0.4,0.1-0.6c0-0.2,0.1-0.4,0.1-0.6s0.1-0.4,0.1-0.6c0-0.2,0.1-0.4,0.1-0.6
			v-0.2c0,0,0-0.1,0-0.1c0-0.1-0.1-0.1-0.1-0.1c0,0-0.1-0.1-0.1-0.1c0,0-0.1-0.1-0.1-0.1c0,0,0,0,0,0c0-0.1,0-0.2,0.1-0.4
			c0-0.2,0.1-0.4,0.2-0.6s0.1-0.4,0.2-0.6s0.1-0.3,0.2-0.3c0.1-0.1,0.1-0.1,0.2-0.2c0.1-0.1,0.1-0.1,0.1-0.2s0-0.2,0-0.3
			c0-0.1,0-0.2,0-0.3c0-0.1,0-0.2,0-0.2c0,0,0.1,0,0.1,0c0.1,0,0.1,0,0.2,0c0.1,0,0.1-0.1,0.2-0.2c0.1-0.2,0.2-0.4,0.3-0.5
			c0.1-0.2,0.2-0.3,0.3-0.4c0.1-0.1,0.2-0.3,0.4-0.4c0.1-0.1,0.3-0.2,0.5-0.3c0.2-0.1,0.3-0.2,0.5-0.3c0.2-0.1,0.3-0.3,0.5-0.4
			c0.2-0.1,0.3-0.3,0.5-0.3s0.4-0.1,0.6-0.1c0.3,0,0.6,0,0.8-0.1c0.3-0.1,0.5-0.2,0.8-0.2c0.4-0.1,0.9-0.1,1.3-0.2
			c0.4-0.1,0.9-0.1,1.3-0.1c0.2,0,0.5,0,0.9,0.1s0.7,0.2,1.1,0.3s0.7,0.3,1,0.4c0.3,0.2,0.6,0.3,0.8,0.5v0c0,0.1,0,0.3-0.1,0.4
			c-0.1,0.2-0.1,0.3-0.1,0.4c0,0,0,0,0,0.1c0,0,0,0,0,0c0.2,0,0.3,0,0.5-0.1c0.2,0,0.3-0.1,0.5-0.1c0,0.2,0.1,0.3,0.2,0.4
			c0.1,0.1,0.3,0.1,0.4,0.2c0.1,0.1,0.2,0.2,0.4,0.3c0.1,0.2,0.2,0.3,0.3,0.5s0.2,0.4,0.3,0.6c0.1,0.2,0.2,0.4,0.3,0.5
			c0.1,0.1,0.2,0.3,0.2,0.4c0.1,0.2,0.1,0.4,0.2,0.5s0.1,0.4,0.1,0.6c0,0.2,0,0.4,0,0.5c0,0.2,0,0.4-0.1,0.5s-0.2,0.3-0.3,0.4
			s-0.2,0.2-0.3,0.3c-0.1,0.1-0.1,0.2-0.1,0.3c0,0.1,0,0.1,0,0.2s0.1,0.1,0.1,0.2c0,0,0.1,0,0.1,0c0.1,0,0.1,0,0.1-0.1v0
			c0-0.1,0-0.2-0.1-0.2c-0.1-0.1-0.1-0.2-0.1-0.3c0,0,0-0.1,0-0.1c0,0,0-0.1,0.1-0.1c0.1,0,0.1,0,0.2,0.1s0.1,0.2,0.2,0.3
			c0.1,0.1,0.1,0.2,0.1,0.2s0,0.1,0,0.1l0,0c0,0.1,0,0.1,0,0.1C81.6,423,81.6,423,81.6,423.1z M80,423.2c0-0.2-0.1-0.3-0.2-0.3
			c-0.1,0-0.3-0.1-0.4-0.1c-0.2,0-0.3,0-0.5,0c-0.2,0-0.3-0.1-0.3-0.2v-0.2c0-0.2,0-0.5-0.1-0.8c-0.1-0.3-0.1-0.6-0.2-0.9
			c-0.1-0.3-0.2-0.6-0.3-0.9c-0.1-0.3-0.2-0.6-0.3-0.8c-0.1-0.2-0.2-0.5-0.3-0.8c-0.1,0-0.2,0-0.2,0c-0.2,0-0.3,0-0.5-0.1
			c-0.1-0.1-0.3-0.2-0.4-0.2c-0.2-0.1-0.4-0.2-0.6-0.2c-0.2-0.1-0.5-0.1-0.9-0.1c-0.4,0-0.8,0-1.3-0.1c-0.4-0.1-0.8-0.1-1.3-0.1
			c-0.6,0-1.1,0.1-1.6,0.4c-0.5,0.3-1,0.6-1.3,1c-0.4,0.4-0.7,0.9-0.9,1.5c-0.2,0.5-0.3,1.1-0.3,1.6c0,0.2,0,0.5,0,0.8
			c0,0.3,0,0.6,0.1,0.9c0,0.3,0.1,0.6,0.2,0.9s0.2,0.5,0.4,0.6v0.4c0,0,0.1,0.1,0.2,0.1c0.1,0,0.1,0,0.2,0c0.1,0,0.1,0,0.2,0
			c0.1,0,0.1,0.1,0.1,0.1c0.1,0.4,0.3,0.7,0.5,0.9s0.5,0.4,0.7,0.5s0.5,0.3,0.8,0.4s0.5,0.3,0.7,0.6c0.1,0,0.2,0,0.3,0
			c0.1,0,0.2,0,0.3,0c0.3,0,0.7,0,1,0.1c0.3,0,0.6,0.1,1,0.1c0.3,0,0.7-0.1,0.9-0.3c0.3-0.2,0.5-0.4,0.7-0.7
			c0.1-0.2,0.2-0.3,0.3-0.5c0.1-0.1,0.2-0.2,0.3-0.4s0.2-0.2,0.4-0.3c0.1-0.1,0.3-0.2,0.5-0.3c0.1,0,0.1-0.1,0.2-0.2
			c0.1-0.1,0.2-0.1,0.3-0.2c0.1-0.1,0.2-0.2,0.2-0.2s0.1-0.2,0.1-0.2c0-0.1,0-0.2,0-0.3c0-0.1,0-0.2,0-0.3c0-0.1,0-0.2,0-0.4
			c0-0.1,0.1-0.3,0.1-0.4c0.1-0.1,0.2-0.2,0.3-0.3c0.1-0.1,0.2-0.1,0.4-0.1c0.1,0,0.2,0,0.3,0.1c0.1,0.1,0.2,0.1,0.3,0.2
			C80,423.3,80,423.2,80,423.2z M72.7,412c0,0.1,0,0.2,0,0.2c0,0.1-0.1,0.1-0.1,0.1c0,0-0.1,0.1-0.1,0.2c0,0.1-0.1,0.1-0.1,0.2
			c-0.2,0.3-0.5,0.5-0.7,0.7s-0.5,0.2-1,0.2c-0.2,0-0.3,0-0.4,0s-0.2,0-0.3,0c-0.1,0-0.1-0.1-0.2-0.1c-0.1-0.1-0.2-0.2-0.3-0.3
			c-0.1,0-0.1-0.1-0.2-0.1c-0.1,0-0.1-0.1-0.1-0.1c-0.1-0.1-0.1-0.2-0.1-0.3c0-0.1,0-0.2-0.1-0.3c-0.1-0.1-0.1-0.2-0.2-0.2
			c-0.1,0-0.1-0.1-0.1-0.1c0,0-0.1-0.1-0.1-0.2c0-0.1,0-0.2,0-0.4c0-0.2,0-0.4,0-0.5c0-0.1,0.1-0.2,0.3-0.4c0.1-0.1,0.1-0.2,0.2-0.3
			c0-0.1,0.1-0.2,0.2-0.3c0.1-0.1,0.2-0.2,0.3-0.2c0.1-0.1,0.3-0.1,0.4-0.2s0.3-0.1,0.4-0.1c0.1,0,0.3,0,0.4,0
			c0.3,0,0.6,0.1,0.9,0.2c0.3,0.1,0.5,0.3,0.7,0.6c0.2,0.2,0.3,0.5,0.4,0.8S72.7,411.7,72.7,412z M78.5,411.2c0,0.4,0,0.7,0,1
			c0,0.3-0.1,0.5-0.2,0.8c-0.1,0.2-0.3,0.4-0.5,0.5c-0.2,0.1-0.6,0.2-1,0.3c-0.1,0-0.2,0-0.2,0.1c-0.1,0-0.1,0-0.2,0
			c-0.2,0-0.4-0.1-0.7-0.2c-0.2-0.1-0.5-0.3-0.7-0.5c-0.2-0.2-0.4-0.4-0.5-0.6c-0.1-0.2-0.2-0.4-0.2-0.6c0-0.2,0-0.3,0-0.6
			c0-0.2,0-0.4,0.1-0.7s0.1-0.4,0.2-0.6c0.1-0.2,0.2-0.3,0.3-0.4c0.1-0.1,0.3-0.2,0.5-0.2c0.2,0,0.3-0.1,0.5-0.2c0.1,0,0.1,0,0.2,0
			c0.3,0,0.6,0,0.9,0.1c0.3,0.1,0.5,0.2,0.8,0.4c0.2,0.2,0.4,0.4,0.5,0.6C78.5,410.5,78.5,410.8,78.5,411.2z"/>
		<path d="M102,429.2c0,0.1,0,0.3-0.1,0.4c-0.1,0.1-0.2,0.2-0.3,0.2c-0.1,0-0.2,0-0.3,0c-0.1,0-0.2,0-0.3,0c-0.2,0-0.3,0-0.3,0.1
			c0,0.1,0,0.1,0,0.2c0,0.1-0.1,0.1-0.2,0.2c-0.1,0.1-0.4,0.1-0.8,0.1c-0.2,0-0.5,0-0.7-0.1s-0.5-0.1-0.7-0.1c-0.2,0-0.4,0-0.6,0.1
			c-0.1-0.1-0.2-0.2-0.3-0.2c-0.1-0.1-0.2-0.1-0.3-0.2c-0.1-0.1-0.2-0.1-0.2-0.2c-0.1-0.1-0.1-0.2-0.1-0.4c0-0.1-0.1-0.2-0.2-0.2
			c-0.1,0-0.1,0-0.1,0c0,0-0.1,0-0.1,0c-0.1,0-0.1,0-0.1,0c0,0-0.1-0.1-0.1-0.1c0,0,0,0,0,0c-0.2,0-0.4,0.1-0.5,0.2
			c-0.1,0.1-0.2,0.3-0.4,0.4c-0.1,0.1-0.2,0.2-0.3,0.2c-0.1,0-0.2,0.1-0.3,0.1s-0.2,0.1-0.3,0.1c-0.1,0.1-0.2,0.1-0.4,0.2
			c-0.1,0.1-0.3,0.2-0.5,0.2s-0.5,0.1-0.7,0.1c-0.2,0-0.5,0-0.7,0s-0.4,0-0.6,0c-0.3,0-0.6,0-0.8-0.1c-0.2-0.1-0.4-0.1-0.5-0.2
			c-0.2-0.1-0.3-0.2-0.5-0.3c-0.2-0.1-0.4-0.2-0.6-0.3c-0.3-0.1-0.6-0.2-1-0.5c-0.4-0.2-0.8-0.5-1.1-0.8c-0.4-0.3-0.7-0.6-0.9-1
			c-0.3-0.3-0.4-0.7-0.4-1c0-0.1,0-0.3-0.1-0.4c-0.1-0.2-0.2-0.3-0.3-0.4c-0.1-0.1-0.2-0.3-0.3-0.4c-0.1-0.1-0.2-0.3-0.3-0.4
			c-0.2-0.4-0.3-0.8-0.4-1.3c-0.1-0.4-0.1-0.9-0.1-1.3c0-0.4,0-0.8,0.1-1.2c0.1-0.4,0.1-0.7,0.2-1.1s0.2-0.7,0.3-1.1
			c0.1-0.4,0.2-0.7,0.3-1.1c0.1-0.3,0.1-0.5,0.2-0.6s0.2-0.3,0.3-0.4c0.1-0.1,0.3-0.2,0.4-0.3s0.3-0.2,0.4-0.4
			c0.1-0.1,0.1-0.1,0.1-0.2c0-0.1,0-0.1,0-0.1c0,0,0-0.1,0.1-0.1s0.1,0,0.3,0c0.1,0,0.1,0,0.2-0.1c0-0.1,0.1-0.1,0.1-0.2
			c0-0.1,0.1-0.1,0.1-0.2c0-0.1,0.1-0.1,0.1-0.2c0.1,0,0.1-0.1,0.2-0.1c0.1,0,0.2,0,0.3,0c0.1,0,0.2,0,0.3,0c0.1,0,0.2,0,0.3-0.1
			c0.2-0.1,0.4-0.2,0.5-0.3c0.1-0.1,0.3-0.1,0.4-0.2c0.1-0.1,0.3-0.1,0.4-0.1c0.2,0,0.4,0,0.7,0c0.4,0,0.7,0,1.1,0.1
			c0.3,0.1,0.7,0.2,1,0.3c0.3,0.1,0.7,0.2,1,0.3c0.3,0.1,0.7,0.1,1.1,0.1c0.3,0,0.5-0.1,0.7-0.2s0.3-0.3,0.4-0.5
			c0.1-0.2,0.1-0.4,0.2-0.7c0-0.2,0-0.5,0-0.7c0-0.4,0-0.8-0.1-1.2c-0.1-0.4-0.1-0.8-0.1-1.2l-0.1,0.1c-0.1,0-0.2,0-0.3-0.1
			c-0.1-0.1-0.2-0.1-0.2-0.2c-0.1-0.1-0.2-0.1-0.2-0.2c-0.1-0.1-0.2-0.1-0.3-0.1c-0.1,0-0.2,0-0.2,0.1c0,0.1-0.1,0.1-0.2,0.2
			c-0.1,0-0.2,0-0.4,0c-0.1,0-0.2,0-0.4,0h-0.7c-0.1,0-0.3,0-0.5-0.1c-0.2-0.1-0.4-0.2-0.5-0.3c-0.2-0.1-0.3-0.3-0.4-0.5
			c-0.1-0.2-0.2-0.3-0.2-0.5c0-0.1,0-0.3,0.1-0.4c0.1-0.2,0.2-0.3,0.3-0.4c0.1-0.1,0.3-0.2,0.4-0.3s0.3-0.1,0.5-0.1
			c0.1,0,0.3,0,0.4,0.1c0.1,0.1,0.2,0.1,0.4,0.1c0.2,0,0.5,0,0.7-0.1c0.2-0.1,0.4-0.1,0.7-0.1c0.2,0,0.5,0,0.7,0.1
			c0.2,0.1,0.4,0.1,0.7,0.1c0.2,0,0.4,0,0.5,0c0.2,0,0.4,0,0.5,0c0.2,0,0.4,0,0.6,0c0.2,0,0.4,0.1,0.5,0.2v0.1c0,0.1,0,0.3,0.1,0.4
			c0,0.1,0.1,0.3,0.1,0.4s0.1,0.3,0.1,0.4c0,0.1,0.1,0.3,0.1,0.4c0,0.2,0,0.4-0.1,0.5c-0.1,0.2-0.1,0.4-0.1,0.6c0,0.4,0,0.7,0.1,1.1
			c0.1,0.4,0.1,0.7,0.1,1.1c0,0.9,0,1.8,0,2.7c0,0.9,0,1.8,0,2.8c0,0.9,0,1.9-0.1,2.8s-0.1,1.9-0.1,2.8c0,0.3,0,0.7,0,1.2
			c0,0.4,0.1,0.8,0.3,1.2c0.1,0.4,0.3,0.7,0.6,1c0.3,0.3,0.6,0.4,1.1,0.4c0.1,0,0.2,0,0.3,0c0.1,0,0.2,0,0.3,0c0.1,0,0.3,0,0.4,0.1
			c0.1,0.1,0.2,0.2,0.3,0.3c0.1,0.1,0.1,0.2,0.2,0.4C102,429,102,429.1,102,429.2z M96.3,421.5c0-0.4,0-0.8-0.1-1.2
			c-0.1-0.4-0.2-0.8-0.4-1.2c-0.2-0.4-0.4-0.7-0.7-1c-0.3-0.3-0.7-0.4-1.1-0.4c-0.1,0-0.2-0.1-0.3-0.1c-0.1-0.1-0.3-0.2-0.4-0.2
			c-0.1-0.1-0.3-0.2-0.4-0.2c-0.1-0.1-0.2-0.1-0.4-0.1c-0.1,0-0.2,0-0.3,0.1c-0.1,0-0.2,0.1-0.3,0.1c-0.1,0-0.2,0.1-0.3,0.1
			c-0.1,0-0.2,0.1-0.3,0.1c-0.2,0-0.3,0-0.5,0c-0.2,0-0.3,0-0.5,0c-0.5,0-1,0.2-1.4,0.5s-0.8,0.7-1.1,1.2c-0.3,0.5-0.5,1-0.7,1.5
			c-0.2,0.5-0.3,1-0.3,1.5c0,0.2,0,0.4,0,0.6c0,0.2,0,0.4,0,0.6c0,0.1,0,0.2-0.1,0.3c-0.1,0.1-0.1,0.2-0.2,0.2
			c-0.1,0.1-0.2,0.2-0.2,0.3c-0.1,0.1-0.1,0.2-0.1,0.3h0.1c0.3,0,0.5,0,0.6,0.1c0.2,0.1,0.3,0.2,0.3,0.4c0.1,0.2,0.1,0.3,0.2,0.6
			c0,0.2,0.1,0.4,0.2,0.6c0.1,0.2,0.2,0.4,0.3,0.6c0.1,0.2,0.3,0.4,0.5,0.5c0.2,0.1,0.4,0.2,0.6,0.4c0.2,0.1,0.4,0.3,0.6,0.4
			c0.2,0.1,0.4,0.2,0.7,0.3c0.2,0.1,0.4,0.1,0.6,0.1c0.3,0,0.7,0,1-0.1c0.3-0.1,0.7-0.1,1-0.1c0.1,0,0.3,0,0.4,0
			c0.2-0.4,0.5-0.7,0.8-1.1c0.3-0.3,0.7-0.6,1.2-0.7l0-0.3c0-0.3,0-0.7,0.1-1s0.2-0.7,0.3-1s0.2-0.7,0.3-1.1
			C96.3,422.3,96.3,421.9,96.3,421.5z"/>
	</g>
	<g>
		<path d="M45.1,500.2c0,0.1,0,0.2,0,0.3c0,0.1-0.1,0.2-0.1,0.4c0,0.1-0.1,0.2-0.2,0.3s-0.1,0.1-0.2,0.1c0,0-0.1,0-0.1,0
			s-0.1,0-0.1,0c-0.1,0-0.1,0-0.2,0.1c-0.1,0.1-0.1,0.1-0.2,0.2c-0.1,0.1-0.1,0.2-0.2,0.2c-0.1,0.1-0.2,0.1-0.3,0.1
			c-0.1,0-0.1,0-0.2,0c0,0.2,0.1,0.4,0.1,0.6c0,0.2,0,0.4,0,0.6c0,0.3,0,0.7-0.1,1c0,0.3-0.1,0.6-0.1,1c-0.1,0.3-0.1,0.6-0.1,1
			c0,0.3-0.1,0.6-0.1,1c0,0.4,0,0.8,0.1,1.1c0.1,0.4,0.1,0.8,0.1,1.1c0,0.2,0,0.3,0,0.5s-0.1,0.4-0.2,0.5s-0.2,0.3-0.3,0.4
			c-0.1,0.1-0.3,0.2-0.5,0.2c-0.3,0-0.5-0.1-0.7-0.3c-0.2-0.2-0.3-0.4-0.4-0.6s-0.2-0.4-0.3-0.6c-0.1-0.2-0.2-0.3-0.4-0.3
			c-0.1,0-0.2,0-0.3,0.1s-0.2,0.2-0.4,0.3c-0.1,0.1-0.3,0.2-0.4,0.3c-0.2,0.1-0.3,0.2-0.5,0.2c-0.2,0-0.3,0.1-0.4,0.2
			c-0.1,0.1-0.1,0.1-0.2,0.2c-0.1,0.1-0.2,0.1-0.3,0.2s-0.4,0.1-0.7,0.1c-0.2,0-0.5,0-0.7,0c-0.2,0-0.5,0-0.7,0c-0.2,0-0.3,0-0.5,0
			c-0.2,0-0.3,0-0.5,0c-0.3,0-0.5,0-0.6-0.1c-0.2,0-0.3-0.1-0.4-0.2c-0.1-0.1-0.3-0.1-0.4-0.2s-0.3-0.1-0.5-0.2
			c-0.2-0.1-0.3-0.1-0.4-0.1c-0.1,0-0.2-0.1-0.3-0.1c-0.1,0-0.2-0.1-0.3-0.2c-0.1-0.1-0.2-0.2-0.3-0.3c-0.1-0.1-0.2-0.1-0.3-0.2
			c-0.1-0.1-0.2-0.1-0.3-0.2s-0.2-0.1-0.2-0.2c-0.1-0.1-0.1-0.2-0.1-0.3c0-0.1,0-0.2,0-0.2c0,0,0-0.1-0.1-0.1c0,0-0.1,0-0.1-0.1
			s-0.1,0-0.2-0.1c-0.1-0.2-0.2-0.4-0.3-0.6s-0.1-0.4-0.2-0.6s-0.1-0.4-0.2-0.6s-0.2-0.4-0.4-0.5c0-0.1,0-0.2,0-0.3
			c0-0.2,0-0.4-0.1-0.6c-0.1-0.2-0.2-0.4-0.3-0.6c-0.1-0.2-0.2-0.4-0.3-0.6c-0.1-0.2-0.1-0.4-0.1-0.7c0-0.1,0-0.3,0-0.4
			c0-0.1,0-0.3,0-0.4c0-0.2,0-0.4-0.1-0.6s-0.1-0.4-0.1-0.6c-0.1-0.2-0.1-0.4-0.1-0.6s-0.1-0.4-0.1-0.6c0-0.1,0-0.1,0-0.2
			c0-0.1,0-0.1,0-0.2c0.1-0.4,0.1-0.8,0.1-1.1s0.1-0.8,0.1-1.1s0.1-0.8,0.1-1.1c0-0.4,0.1-0.8,0.2-1.1c0.1-0.4,0.2-0.7,0.2-1.1
			c0.1-0.4,0.1-0.7,0.1-1.1c0.1-0.1,0.2-0.2,0.3-0.4s0.3-0.3,0.4-0.4s0.3-0.3,0.4-0.4s0.2-0.3,0.2-0.4s0.1-0.3,0.3-0.5
			s0.3-0.4,0.5-0.6c0.2-0.2,0.4-0.4,0.6-0.5c0.2-0.1,0.4-0.2,0.5-0.3c0.1,0,0.1,0,0.2,0s0.2,0,0.2,0c0.1,0,0.1-0.1,0.2-0.1
			c0.1,0,0.1-0.1,0.1-0.2c0-0.1,0-0.2,0-0.2c0.6-0.1,1.1-0.1,1.7-0.3c0.6-0.1,1.1-0.2,1.7-0.2c0.1,0,0.3,0,0.6,0
			c0.3,0,0.5,0,0.8,0.1c0.3,0.1,0.5,0.1,0.7,0.3c0.2,0.1,0.3,0.3,0.3,0.4v0.1c0,0,0.1,0,0.1,0c0,0,0.1,0,0.1,0c0.2,0,0.3,0,0.5,0.1
			s0.3,0.1,0.5,0.1c0.2,0,0.3,0,0.5,0c0.2,0,0.4,0,0.5-0.1c0.2,0,0.3-0.1,0.5-0.2c0.2-0.1,0.3-0.2,0.4-0.3c0.2,0,0.4,0.1,0.6,0.3
			c0.1,0.2,0.3,0.5,0.3,0.8c0.1,0.3,0.1,0.6,0.2,0.9c0,0.3,0.1,0.5,0.1,0.7c0,0.3,0,0.5-0.1,0.8c0,0.3-0.1,0.5-0.2,0.7
			c0,0.1,0.1,0.3,0.1,0.4c0.1,0.1,0.1,0.2,0.2,0.3s0.1,0.2,0.2,0.3s0.1,0.2,0.1,0.4c-0.1,0.2-0.1,0.5-0.1,0.8s0,0.7-0.1,1
			s-0.1,0.7-0.3,0.9c-0.1,0.3-0.3,0.4-0.6,0.4c-0.2,0-0.4-0.1-0.5-0.2c-0.1-0.1-0.3-0.3-0.3-0.5l0,0c0.1,0,0.2-0.1,0.2-0.2
			c0,0,0-0.1-0.1-0.1c-0.1-0.1-0.1-0.1-0.2-0.2c-0.1-0.1-0.2-0.1-0.3-0.2c-0.1-0.1-0.1-0.1-0.2-0.2c-0.1-0.1-0.2-0.2-0.2-0.4
			c-0.1-0.2-0.1-0.3-0.2-0.5c-0.1-0.2-0.1-0.4-0.1-0.6s0-0.4,0-0.5c0-0.1,0-0.1,0-0.1s0-0.1,0-0.1l0,0c0,0-0.1-0.1-0.2-0.2
			c-0.1-0.1-0.2-0.3-0.3-0.4c-0.1-0.2-0.2-0.3-0.3-0.4s-0.2-0.2-0.2-0.3c-0.2-0.2-0.4-0.4-0.7-0.6c-0.2-0.2-0.5-0.4-0.7-0.6
			c-0.1,0.1-0.2,0.1-0.3,0.1c-0.1,0-0.2,0.1-0.3,0.1c-0.1,0-0.2,0-0.2-0.1c-0.1,0-0.1-0.1-0.2-0.1c-0.1,0-0.1-0.1-0.2-0.1
			s-0.1-0.1-0.3-0.1c-0.2,0-0.5,0-0.7,0.1c-0.2,0.1-0.4,0.1-0.7,0.1c-0.2,0-0.5,0-0.7-0.1s-0.5-0.1-0.7-0.1c0,0,0,0-0.1,0
			c0,0-0.1,0-0.1,0c0,0.1,0,0.2,0.1,0.3c0,0.1,0.1,0.2,0.1,0.3c0,0.1-0.1,0.3-0.2,0.4c-0.1,0.1-0.3,0.3-0.4,0.4
			c-0.2,0.1-0.3,0.2-0.5,0.4c-0.2,0.1-0.3,0.2-0.4,0.3c-0.1,0.1-0.2,0.3-0.3,0.5c-0.1,0.2-0.1,0.3-0.2,0.5s-0.1,0.3-0.2,0.5
			c-0.1,0.1-0.2,0.3-0.4,0.4c0.1,0.2,0.1,0.4,0.1,0.6c0,0.1,0,0.3,0,0.4c0,0.1,0,0.3,0,0.4c0,0.3,0,0.7,0.1,1c0.1,0.3,0.1,0.7,0.1,1
			c0,0.3,0,0.5-0.1,0.8s-0.1,0.5-0.2,0.8s-0.1,0.5-0.2,0.8s-0.1,0.5-0.1,0.8c0,0.2,0,0.5,0.1,0.7c0.1,0.2,0.1,0.4,0.2,0.6
			c0.1,0.2,0.1,0.4,0.2,0.6c0.1,0.2,0.1,0.4,0.1,0.5c0,0.1,0,0.2,0,0.3c0,0.1,0,0.2,0,0.3c0,0.4,0.1,0.8,0.3,1.1
			c0.2,0.3,0.4,0.6,0.7,0.9c0.3,0.3,0.5,0.5,0.7,0.8c0.2,0.3,0.4,0.6,0.5,1c0.2,0,0.3,0,0.5,0c0.2,0,0.4,0,0.6,0.1s0.4,0.1,0.5,0.1
			c0.2,0.1,0.4,0.1,0.5,0.1s0.4,0.1,0.6,0.1c0.4,0,0.8-0.1,1.2-0.2c0.4-0.2,0.8-0.4,1.1-0.6c0.3-0.3,0.7-0.6,0.9-0.9
			c0.3-0.4,0.4-0.7,0.5-1.1c0.1-0.4,0.2-0.7,0.4-1.1c0.1-0.1,0.1-0.2,0.2-0.2s0.1-0.1,0.2-0.1c0.1,0,0.1,0,0.1,0s0,0,0-0.1
			s0-0.1-0.1-0.2c-0.1-0.1-0.1-0.1-0.1-0.2c0,0,0-0.1,0.1-0.1c0,0,0.1-0.1,0.1-0.2c0.1-0.1,0.1-0.1,0.1-0.2c0-0.1,0.1-0.2,0.1-0.3
			c0-0.2-0.1-0.4-0.2-0.5s-0.3-0.3-0.5-0.4s-0.4-0.2-0.6-0.3c-0.2-0.1-0.4-0.2-0.6-0.3s-0.3-0.3-0.5-0.4s-0.2-0.4-0.2-0.7
			c0-0.2,0.1-0.4,0.2-0.6c0.1-0.2,0.3-0.3,0.5-0.4c0.2-0.1,0.4-0.2,0.6-0.2c0.2,0,0.4-0.1,0.6-0.1c0.1,0,0.3-0.1,0.4-0.1
			c0.1-0.1,0.3-0.1,0.4-0.2c0.1-0.1,0.3-0.1,0.4-0.2c0.1,0,0.2-0.1,0.4-0.1c0.1,0,0.3,0,0.4,0.1c0.1,0.1,0.3,0.1,0.4,0.1
			c0.2,0,0.4,0.1,0.7,0.1s0.6,0.1,0.9,0.2c0.3,0.1,0.5,0.2,0.7,0.4C45,499.7,45.1,499.9,45.1,500.2z"/>
		<path d="M64.1,499.4c0,0.2,0,0.4-0.1,0.5c-0.1,0.1-0.2,0.3-0.3,0.4c-0.1,0.1-0.2,0.3-0.3,0.4c-0.1,0.1-0.2,0.3-0.2,0.5
			c-0.1,0-0.2-0.1-0.3-0.1c-0.1,0-0.2,0-0.3,0c-0.3,0-0.5,0-0.7,0.1c-0.2,0-0.5,0.1-0.7,0.1c-0.3,0-0.5-0.1-0.7-0.3
			c-0.2-0.2-0.3-0.4-0.4-0.6s-0.2-0.5-0.2-0.8c0-0.3-0.1-0.5-0.1-0.8c0-0.3,0-0.6,0.1-0.9c-0.1,0-0.2,0-0.2,0c-0.1,0-0.2,0-0.3,0.1
			c-0.1,0.1-0.1,0.1-0.2,0.1c-0.1,0-0.2,0-0.3-0.1c-0.1-0.1-0.2-0.1-0.3-0.1c-0.2,0-0.4,0-0.6,0.1s-0.5,0.2-0.7,0.4
			s-0.4,0.3-0.6,0.5c-0.2,0.2-0.2,0.4-0.2,0.5c-0.2,0-0.4,0.1-0.6,0.2c-0.2,0.1-0.4,0.2-0.6,0.3c-0.1,0.1-0.3,0.2-0.3,0.4
			s-0.2,0.4-0.3,0.6s-0.2,0.4-0.2,0.6s-0.2,0.4-0.3,0.5c-0.2,0.2-0.3,0.5-0.5,0.7c-0.1,0.2-0.2,0.5-0.2,0.8c0,0.4,0.1,0.7,0.2,1.1
			c0.1,0.4,0.2,0.8,0.2,1.1c0,0.3,0,0.5-0.1,0.8c0,0.3-0.1,0.5-0.1,0.7c0,0.3,0.1,0.5,0.2,0.7c0.1,0.2,0.2,0.3,0.4,0.4
			c0.2,0.1,0.4,0.2,0.6,0.2c0.2,0,0.5,0,0.7,0c0.3,0,0.5,0,0.8,0c0.2,0,0.5,0,0.7,0c0.1,0.1,0.1,0.2,0.1,0.2c0,0.1,0,0.1,0,0.2
			s0,0.2-0.1,0.2c0,0.1,0,0.2,0,0.3c0,0,0,0.1,0,0.2c0.2,0,0.3,0,0.4-0.1c0.1-0.1,0.2-0.2,0.3-0.3c0.1,0,0.1,0.1,0.2,0.1
			c0.1,0,0.1,0.1,0.1,0.2c0,0.1,0,0.1,0,0.2s-0.1,0.1-0.1,0.2c0,0.1-0.1,0.1-0.1,0.2s0,0.1,0,0.2c0,0,0,0.1,0,0.1c0,0,0,0.1,0,0.1
			c-0.1,0.1-0.1,0.1-0.2,0.2s-0.2,0-0.3,0c-0.2,0-0.3,0-0.4-0.1s-0.2-0.1-0.3-0.2c-0.1-0.1-0.2-0.1-0.2-0.2
			c-0.1-0.1-0.2-0.1-0.3-0.1c0,0-0.1,0-0.2,0c-0.1,0-0.2,0-0.3,0.1c-0.1,0-0.2,0.1-0.2,0.1s-0.1,0.1-0.1,0.1c0,0.1,0,0.2,0.1,0.2
			c0.1,0.1,0.1,0.1,0.1,0.2c0,0.1,0,0.1-0.1,0.2c-0.1,0-0.1,0.1-0.2,0.1c-0.1,0-0.1,0-0.2,0c-0.1,0-0.1,0-0.2,0
			c-0.4,0-0.8,0-1.2-0.1c-0.4-0.1-0.8-0.1-1.2-0.1c-0.2,0-0.4,0-0.6,0.1c-0.2,0.1-0.4,0.1-0.6,0.1c-0.1,0-0.2,0-0.3-0.1
			c-0.1,0-0.1-0.1-0.1-0.2c0-0.1-0.1-0.1-0.1-0.2c-0.1,0-0.1-0.1-0.2-0.1c-0.2,0-0.4,0-0.6,0.1c-0.2,0-0.4,0.1-0.6,0.1
			c-0.2,0-0.4,0.1-0.6,0.1c-0.2,0-0.4,0.1-0.6,0.1c-0.1,0-0.2,0-0.4,0c-0.1,0-0.3-0.1-0.4-0.1c-0.1-0.1-0.3-0.1-0.3-0.2
			s-0.1-0.2-0.1-0.3c0-0.1,0-0.2,0.1-0.3c0.1-0.1,0.2-0.3,0.3-0.4s0.3-0.2,0.4-0.3s0.2-0.1,0.3-0.1c0.2,0,0.3,0,0.5,0
			c0.2,0,0.3,0,0.5,0c0.3,0,0.6,0,0.9-0.1c0.3-0.1,0.5-0.2,0.8-0.4s0.4-0.4,0.6-0.6c0.1-0.3,0.2-0.5,0.2-0.8c0-0.1,0-0.3,0-0.4
			c0-0.1,0-0.3,0-0.4c0-0.3,0-0.5,0.1-0.8s0.1-0.5,0.1-0.8c0-0.4,0-0.7-0.1-1.1s-0.1-0.8-0.1-1.1c0-0.3,0-0.7,0-1s0-0.7,0-1
			c0-0.2,0-0.4,0-0.7c0-0.3,0-0.6-0.1-0.9c-0.1-0.3-0.1-0.6-0.3-0.8c-0.1-0.2-0.3-0.3-0.5-0.3c-0.2,0-0.5,0-0.7,0.1
			c-0.2,0.1-0.5,0.1-0.7,0.1c-0.2,0-0.4,0-0.6,0c-0.2,0-0.5-0.1-0.7-0.2s-0.4-0.2-0.6-0.3s-0.2-0.3-0.2-0.6c0-0.3,0-0.5,0.1-0.6
			c0.1-0.2,0.2-0.3,0.3-0.4c0.1-0.1,0.3-0.1,0.4-0.2c0.2,0,0.3,0,0.5,0c0.2,0,0.3,0,0.5,0c0.2,0,0.3,0,0.5,0c0.3,0,0.7,0,1-0.1
			s0.7-0.1,1-0.1c0.2,0,0.5,0,0.7,0c0.2,0,0.5,0.1,0.7,0.1c0.2,0.1,0.3,0.2,0.4,0.4s0.2,0.3,0.3,0.5s0.2,0.3,0.3,0.5
			c0.1,0.1,0.3,0.2,0.5,0.2c0.1,0,0.2,0,0.3-0.1c0.1-0.1,0.2-0.1,0.3-0.2c0.1-0.1,0.2-0.1,0.3-0.2c0.1-0.1,0.2-0.1,0.3-0.1
			c0.2,0,0.4-0.1,0.6-0.2c0.2-0.1,0.4-0.2,0.6-0.3s0.4-0.2,0.6-0.3c0.2-0.1,0.4-0.1,0.6-0.1c0.1,0,0.3,0,0.5,0s0.4-0.1,0.6-0.1
			s0.4-0.1,0.6-0.2c0.2-0.1,0.3-0.2,0.4-0.3c0.3,0,0.6,0.1,1,0.2c0.4,0.1,0.7,0.3,1.1,0.5c0.3,0.2,0.7,0.4,0.9,0.7
			c0.3,0.3,0.4,0.6,0.5,0.9c0,0.2,0.1,0.4,0.2,0.6c0.1,0.2,0.2,0.4,0.3,0.5c0.1,0.2,0.2,0.3,0.2,0.5C64.1,499,64.1,499.2,64.1,499.4
			z"/>
		<path d="M81.9,503.9c0,0.1,0,0.3-0.1,0.4s-0.1,0.2-0.2,0.3c-0.1,0.1-0.1,0.2-0.2,0.2s-0.1,0.1-0.1,0.1c0,0.1,0,0.2,0.1,0.3
			c0.1,0.1,0.1,0.2,0.1,0.4c0,0.1,0,0.1-0.1,0.1s-0.1,0-0.1,0c-0.1,0-0.2,0-0.2,0c0,0.2,0,0.4,0.1,0.6c0,0.2,0,0.4,0,0.6
			c0,0.3,0,0.5-0.1,0.6c-0.1,0.1-0.1,0.1-0.2,0.2s-0.1,0-0.2,0.1c-0.1,0-0.1,0.1-0.1,0.3c0,0.1-0.1,0.2-0.2,0.4
			c-0.1,0.1-0.3,0.3-0.5,0.4c-0.2,0.1-0.4,0.3-0.6,0.4c-0.2,0.1-0.3,0.2-0.5,0.2c0,0-0.1,0-0.1,0c0,0.1,0,0.2,0,0.3
			c0,0.1,0,0.2,0,0.3c0,0.1,0,0.2-0.1,0.3c-0.1,0-0.2,0.1-0.3,0.1c-0.2,0.1-0.3,0.2-0.5,0.3c-0.2,0.1-0.3,0.3-0.5,0.4
			c-0.2,0.1-0.4,0.3-0.5,0.4c-0.2,0.1-0.4,0.2-0.6,0.2c-0.2,0-0.3,0-0.5-0.1c-0.1-0.1-0.3-0.1-0.5-0.1c-0.2,0-0.3,0-0.4,0.1
			c-0.1,0-0.2,0.1-0.3,0.2c-0.1,0.1-0.2,0.1-0.3,0.2c-0.1,0-0.2,0.1-0.4,0.1c-0.3,0-0.5-0.1-0.8-0.2c-0.3-0.1-0.5-0.3-0.8-0.3
			c-0.1-0.1-0.3-0.1-0.5-0.1c-0.2,0-0.3-0.1-0.5-0.1s-0.3-0.1-0.4-0.1c-0.1-0.1-0.3-0.2-0.4-0.3c-0.2-0.3-0.5-0.5-0.8-0.7
			c-0.3-0.2-0.6-0.3-0.9-0.5c-0.3-0.2-0.6-0.3-0.9-0.5s-0.5-0.4-0.7-0.7c-0.2-0.2-0.3-0.5-0.5-0.7c-0.2-0.3-0.4-0.5-0.6-0.8
			s-0.3-0.6-0.4-0.9c-0.1-0.3-0.2-0.6-0.2-0.9c0-0.2,0-0.4,0.1-0.6c0-0.2,0.1-0.4,0.1-0.6s0.1-0.4,0.1-0.6c0-0.2,0.1-0.4,0.1-0.6
			v-0.2c0,0,0-0.1,0-0.1s-0.1-0.1-0.1-0.1c0,0-0.1-0.1-0.1-0.1c0,0-0.1-0.1-0.1-0.1c0,0,0,0,0,0c0-0.1,0-0.2,0.1-0.4
			s0.1-0.4,0.2-0.6s0.1-0.4,0.2-0.6s0.1-0.3,0.2-0.3c0.1-0.1,0.1-0.1,0.2-0.2c0.1-0.1,0.1-0.1,0.1-0.2s0-0.2,0-0.3
			c0-0.1,0-0.2,0-0.3c0-0.1,0-0.2,0-0.2s0.1,0,0.1,0c0.1,0,0.1,0,0.2,0c0.1,0,0.1-0.1,0.2-0.2c0.1-0.2,0.2-0.4,0.3-0.5
			c0.1-0.2,0.2-0.3,0.3-0.4c0.1-0.1,0.2-0.3,0.4-0.4c0.1-0.1,0.3-0.2,0.5-0.3c0.2-0.1,0.3-0.2,0.5-0.3c0.2-0.1,0.3-0.3,0.5-0.4
			c0.2-0.1,0.3-0.3,0.5-0.3s0.4-0.1,0.6-0.1c0.3,0,0.6,0,0.8-0.1s0.5-0.2,0.8-0.2c0.4-0.1,0.9-0.1,1.3-0.2s0.9-0.1,1.3-0.1
			c0.2,0,0.5,0,0.9,0.1s0.7,0.2,1.1,0.3s0.7,0.3,1,0.4c0.3,0.2,0.6,0.3,0.8,0.5v0c0,0.1,0,0.3-0.1,0.4c-0.1,0.2-0.1,0.3-0.1,0.4
			c0,0,0,0,0,0.1s0,0,0,0c0.2,0,0.3,0,0.5-0.1c0.2,0,0.3-0.1,0.5-0.1c0,0.2,0.1,0.3,0.2,0.4c0.1,0.1,0.3,0.1,0.4,0.2
			c0.1,0.1,0.2,0.2,0.4,0.3s0.2,0.3,0.3,0.5s0.2,0.4,0.3,0.6c0.1,0.2,0.2,0.4,0.3,0.5c0.1,0.1,0.2,0.3,0.2,0.4
			c0.1,0.2,0.1,0.4,0.2,0.5s0.1,0.4,0.1,0.6c0,0.2,0,0.4,0,0.5c0,0.2,0,0.4-0.1,0.5s-0.2,0.3-0.3,0.4s-0.2,0.2-0.3,0.3
			s-0.1,0.2-0.1,0.3c0,0.1,0,0.1,0,0.2s0.1,0.1,0.1,0.2c0,0,0.1,0,0.1,0c0.1,0,0.1,0,0.1-0.1v0c0-0.1,0-0.2-0.1-0.2
			c-0.1-0.1-0.1-0.2-0.1-0.3c0,0,0-0.1,0-0.1c0,0,0-0.1,0.1-0.1c0.1,0,0.1,0,0.2,0.1s0.1,0.2,0.2,0.3c0.1,0.1,0.1,0.2,0.1,0.2
			s0,0.1,0,0.1l0,0c0,0.1,0,0.1,0,0.1C81.9,503.8,81.9,503.9,81.9,503.9z M80.4,504c0-0.2-0.1-0.3-0.2-0.3s-0.3-0.1-0.4-0.1
			s-0.3,0-0.5,0c-0.2,0-0.3-0.1-0.3-0.2v-0.2c0-0.2,0-0.5-0.1-0.8c-0.1-0.3-0.1-0.6-0.2-0.9c-0.1-0.3-0.2-0.6-0.3-0.9
			s-0.2-0.6-0.3-0.8c-0.1-0.2-0.2-0.5-0.3-0.8c-0.1,0-0.2,0-0.2,0c-0.2,0-0.3,0-0.5-0.1c-0.1-0.1-0.3-0.2-0.4-0.2
			c-0.2-0.1-0.4-0.2-0.6-0.2s-0.5-0.1-0.9-0.1c-0.4,0-0.8,0-1.3-0.1c-0.4-0.1-0.8-0.1-1.3-0.1c-0.6,0-1.1,0.1-1.6,0.4
			c-0.5,0.3-1,0.6-1.3,1c-0.4,0.4-0.7,0.9-0.9,1.5s-0.3,1.1-0.3,1.6c0,0.2,0,0.5,0,0.8c0,0.3,0,0.6,0.1,0.9c0,0.3,0.1,0.6,0.2,0.9
			s0.2,0.5,0.4,0.6v0.4c0,0,0.1,0.1,0.2,0.1c0.1,0,0.1,0,0.2,0c0.1,0,0.1,0,0.2,0c0.1,0,0.1,0.1,0.1,0.1c0.1,0.4,0.3,0.7,0.5,0.9
			s0.5,0.4,0.7,0.5s0.5,0.3,0.8,0.4s0.5,0.3,0.7,0.6c0.1,0,0.2,0,0.3,0s0.2,0,0.3,0c0.3,0,0.7,0,1,0.1c0.3,0,0.6,0.1,1,0.1
			c0.3,0,0.7-0.1,0.9-0.3c0.3-0.2,0.5-0.4,0.7-0.7c0.1-0.2,0.2-0.3,0.3-0.5c0.1-0.1,0.2-0.2,0.3-0.4s0.2-0.2,0.4-0.3
			c0.1-0.1,0.3-0.2,0.5-0.3c0.1,0,0.1-0.1,0.2-0.2c0.1-0.1,0.2-0.1,0.3-0.2c0.1-0.1,0.2-0.2,0.2-0.2s0.1-0.2,0.1-0.2
			c0-0.1,0-0.2,0-0.3c0-0.1,0-0.2,0-0.3c0-0.1,0-0.2,0-0.4s0.1-0.3,0.1-0.4c0.1-0.1,0.2-0.2,0.3-0.3c0.1-0.1,0.2-0.1,0.4-0.1
			c0.1,0,0.2,0,0.3,0.1c0.1,0.1,0.2,0.1,0.3,0.2C80.3,504.2,80.4,504.1,80.4,504z M73.1,492.9c0,0.1,0,0.2,0,0.2s-0.1,0.1-0.1,0.1
			c0,0-0.1,0.1-0.1,0.2c0,0.1-0.1,0.1-0.1,0.2c-0.2,0.3-0.5,0.5-0.7,0.7s-0.5,0.2-1,0.2c-0.2,0-0.3,0-0.4,0s-0.2,0-0.3,0
			c-0.1,0-0.1-0.1-0.2-0.1c-0.1-0.1-0.2-0.2-0.3-0.3c-0.1,0-0.1-0.1-0.2-0.1c-0.1,0-0.1-0.1-0.1-0.1c-0.1-0.1-0.1-0.2-0.1-0.3
			c0-0.1,0-0.2-0.1-0.3c-0.1-0.1-0.1-0.2-0.2-0.2c-0.1,0-0.1-0.1-0.1-0.1c0,0-0.1-0.1-0.1-0.2c0-0.1,0-0.2,0-0.4c0-0.2,0-0.4,0-0.5
			s0.1-0.2,0.3-0.4c0.1-0.1,0.1-0.2,0.2-0.3s0.1-0.2,0.2-0.3c0.1-0.1,0.2-0.2,0.3-0.2c0.1-0.1,0.3-0.1,0.4-0.2s0.3-0.1,0.4-0.1
			s0.3,0,0.4,0c0.3,0,0.6,0.1,0.9,0.2c0.3,0.1,0.5,0.3,0.7,0.6c0.2,0.2,0.3,0.5,0.4,0.8S73.1,492.6,73.1,492.9z M78.9,492
			c0,0.4,0,0.7,0,1s-0.1,0.5-0.2,0.8c-0.1,0.2-0.3,0.4-0.5,0.5c-0.2,0.1-0.6,0.2-1,0.3c-0.1,0-0.2,0-0.2,0.1s-0.1,0-0.2,0
			c-0.2,0-0.4-0.1-0.7-0.2c-0.2-0.1-0.5-0.3-0.7-0.5s-0.4-0.4-0.5-0.6s-0.2-0.4-0.2-0.6c0-0.2,0-0.3,0-0.6c0-0.2,0-0.4,0.1-0.7
			s0.1-0.4,0.2-0.6c0.1-0.2,0.2-0.3,0.3-0.4c0.1-0.1,0.3-0.2,0.5-0.2c0.2,0,0.3-0.1,0.5-0.2c0.1,0,0.1,0,0.2,0c0.3,0,0.6,0,0.9,0.1
			c0.3,0.1,0.5,0.2,0.8,0.4c0.2,0.2,0.4,0.4,0.5,0.6C78.8,491.4,78.9,491.7,78.9,492z"/>
		<path d="M102.8,510.4c0,0.1,0,0.3-0.1,0.4c-0.1,0.1-0.2,0.2-0.3,0.2c-0.1,0.1-0.2,0.1-0.4,0.1c-0.1,0-0.3,0-0.4,0
			c-0.2,0-0.3,0-0.5,0c-0.2,0-0.3,0-0.5-0.1c-0.2,0.1-0.5,0.1-0.7,0.2c-0.3,0.1-0.5,0.1-0.8,0.1c-0.1,0-0.1,0-0.2,0
			c-0.1,0-0.1,0-0.2,0c-0.2,0-0.4,0-0.5,0.1c-0.2,0.1-0.4,0.1-0.5,0.1c-0.3,0-0.6,0-0.9-0.1c-0.3-0.1-0.6-0.1-0.9-0.1
			c-0.5,0-0.9-0.2-1.1-0.6c-0.3-0.3-0.4-0.7-0.4-1.2c0.3-0.2,0.7-0.3,1-0.4s0.7-0.1,1.1-0.1c0.2,0,0.4,0,0.6,0s0.4,0,0.6,0
			c0-0.8-0.1-1.6-0.2-2.3c-0.1-0.8-0.2-1.6-0.2-2.4c0-0.3,0-0.5,0-0.8s0-0.5,0.1-0.8c0.1-0.3,0.1-0.5,0.2-0.8
			c0.1-0.3,0.1-0.5,0.1-0.8c0-0.2,0-0.3-0.1-0.5c-0.1-0.2-0.1-0.3-0.2-0.5c-0.1-0.1-0.1-0.3-0.1-0.4c0-0.2,0-0.3-0.1-0.5
			s-0.1-0.3-0.1-0.5s-0.2-0.3-0.3-0.4s-0.3-0.2-0.6-0.3s-0.6-0.1-1-0.1c-0.1,0-0.3,0-0.6,0.1c-0.2,0-0.5,0.1-0.8,0.1
			c-0.3,0.1-0.5,0.1-0.7,0.2c-0.2,0.1-0.4,0.2-0.5,0.2c-0.1,0.1-0.1,0.1-0.2,0.2s-0.2,0.2-0.3,0.3c-0.1,0.1-0.2,0.2-0.3,0.3
			c-0.1,0.1-0.2,0.1-0.2,0.1c-0.2,0-0.3,0.1-0.4,0.1s-0.1,0.1-0.2,0.1s-0.1,0.1-0.1,0.2s-0.1,0.2-0.2,0.3c0,0-0.1,0.1-0.1,0.2
			s-0.1,0.2-0.2,0.2c-0.1,0-0.1,0-0.1-0.1c0,0-0.1-0.1-0.1-0.1c0,0,0,0-0.1,0c0,0-0.1,0-0.1,0.1v0.4c-0.1,0.1-0.1,0.1-0.2,0.1
			c-0.1,0-0.1,0-0.1,0c0,0-0.1,0-0.1,0.1s0,0.1,0,0.3c0,0.1,0,0.2-0.1,0.3c-0.1,0.1-0.1,0.2-0.2,0.3c-0.1,0.1-0.1,0.2-0.2,0.3
			c-0.1,0.1-0.1,0.2-0.1,0.3c0,0.2,0,0.4,0.1,0.6c0.1,0.2,0.1,0.4,0.1,0.6c0,0.1,0,0.3-0.1,0.3c0,0.1-0.1,0.2-0.1,0.3
			c-0.1,0.1-0.1,0.2-0.1,0.2c0,0.1-0.1,0.2-0.1,0.3c0,0.1,0,0.3,0.1,0.4c0.1,0.1,0.1,0.2,0.2,0.4s0.1,0.3,0.2,0.4
			c0.1,0.1,0.1,0.3,0.1,0.4c0,0.2,0,0.4-0.1,0.5c0,0.2-0.1,0.4-0.1,0.6c0,0.2,0,0.4,0.1,0.5c0.1,0.1,0.2,0.2,0.3,0.3
			s0.2,0.1,0.4,0.1c0.1,0,0.3,0.1,0.4,0.1c0.2,0.1,0.3,0.1,0.5,0.2s0.3,0.2,0.4,0.4l0.1,0c0.2,0,0.3,0.1,0.4,0.2
			c0.1,0.1,0.1,0.3,0.1,0.5c0,0.1,0,0.3-0.1,0.4s-0.1,0.3-0.1,0.4c0,0.1-0.1,0.2-0.4,0.3c-0.3,0.1-0.6,0.1-0.9,0.2s-0.7,0.1-1,0.1
			c-0.3,0-0.5,0-0.6,0c-0.1,0-0.3,0-0.6,0c-0.3,0-0.5,0-0.9,0c-0.3,0-0.6,0-1-0.1s-0.7-0.1-1-0.1c-0.3-0.1-0.5-0.1-0.7-0.2
			c-0.2-0.1-0.3-0.2-0.4-0.3c-0.1-0.1-0.1-0.3-0.2-0.4c-0.1-0.2-0.1-0.3-0.1-0.4c0-0.2,0-0.3,0.1-0.4s0.2-0.2,0.3-0.3
			c0.2-0.1,0.3-0.2,0.5-0.3s0.4,0,0.6,0c0.2,0,0.4,0,0.5,0s0.3-0.1,0.5-0.2c0.1-0.1,0.2-0.3,0.3-0.6s0.1-0.7,0.1-1.2
			c0-0.1,0-0.3,0-0.4c0-0.1,0-0.3-0.1-0.4s-0.1-0.2-0.1-0.4c0-0.1,0-0.2,0-0.2c0-0.1,0-0.1,0.1-0.2c0-0.1,0.1-0.1,0.1-0.2
			s0.1-0.2,0.1-0.3c0-0.1,0.1-0.2,0.1-0.3c0-0.2,0-0.3-0.1-0.5c-0.1-0.2-0.1-0.3-0.1-0.5c0-0.1,0-0.3,0.1-0.4
			c0.1-0.1,0.1-0.3,0.1-0.4c0-0.1,0-0.2-0.1-0.3s-0.1-0.2-0.1-0.3c0-0.1,0-0.2,0.1-0.4c0-0.1,0.1-0.2,0.1-0.4c0-0.3,0-0.5-0.1-0.8
			s-0.1-0.6-0.2-0.8c-0.1-0.3-0.2-0.6-0.4-0.7s-0.4-0.3-0.6-0.4s-0.4-0.2-0.7-0.2c-0.2-0.1-0.5-0.1-0.7-0.2
			c-0.2-0.1-0.4-0.3-0.5-0.5c-0.1-0.2-0.2-0.5-0.2-0.9c0-0.3,0.1-0.5,0.2-0.6c0.2-0.1,0.4-0.3,0.6-0.3c0.2-0.1,0.5-0.1,0.7-0.1
			c0.3,0,0.5,0,0.7,0c0.3,0,0.6,0,0.9,0.1s0.6,0.1,0.9,0.2c0.1,0,0.3,0.1,0.4,0.1s0.2,0.2,0.3,0.3c0.1,0.1,0.2,0.2,0.3,0.4
			s0.1,0.3,0.1,0.4c0,0.1,0,0.2,0.1,0.3c0,0.2,0.1,0.3,0.1,0.5c0.1,0.2,0.1,0.3,0.2,0.4c0.1,0.1,0.1,0.2,0.2,0.2
			c0.1-0.1,0.1-0.1,0.1-0.2c0-0.1,0-0.1,0.1-0.2c0-0.1,0.1-0.1,0.2-0.3c0.1-0.1,0.3-0.2,0.4-0.3c0.2-0.1,0.3-0.2,0.5-0.3
			c0.2-0.1,0.3-0.2,0.3-0.3c0.1-0.1,0.1-0.1,0.1-0.2c0-0.1,0.1-0.2,0.1-0.2c0-0.1,0.1-0.1,0.1-0.2c0.1,0,0.1-0.1,0.3-0.1h0.1
			c0.1,0,0.2,0,0.3-0.1c0.1-0.1,0.2-0.2,0.4-0.3c0.2-0.1,0.4-0.2,0.7-0.3c0.3-0.1,0.6-0.1,1.1-0.1c0.4,0,0.8,0,1.2,0
			c0.4,0,0.8,0.1,1.1,0.2c0.3,0.1,0.7,0.2,1,0.4c0.3,0.2,0.6,0.5,0.8,0.8c0.2,0.3,0.3,0.5,0.4,0.6c0.1,0.1,0.2,0.3,0.3,0.4
			c0.1,0.1,0.1,0.3,0.1,0.5c0,0.2,0,0.4,0,0.8c0,0.1,0,0.3,0.1,0.4c0.1,0.1,0.1,0.3,0.2,0.4c0.1,0.1,0.1,0.3,0.2,0.4
			c0.1,0.1,0.1,0.3,0.1,0.5c0,0.4,0,0.7-0.1,1.1c0,0.4-0.1,0.7-0.1,1.1c0,0.3,0,0.5-0.1,0.8c-0.1,0.3-0.1,0.5-0.1,0.8
			c0,0.1,0,0.2,0.1,0.4s0.1,0.2,0.1,0.4c0,0.2,0,0.4-0.1,0.5c0,0.2-0.1,0.4-0.1,0.5c0,0.2,0,0.3,0.1,0.4s0.1,0.3,0.1,0.4
			c0,0.1,0,0.2-0.1,0.2c0,0.1-0.1,0.1-0.1,0.2s-0.1,0.1-0.1,0.2c0,0.1-0.1,0.1-0.1,0.2c0,0.2,0,0.3,0.1,0.5s0.2,0.3,0.3,0.4
			s0.3,0.2,0.4,0.3s0.3,0.1,0.5,0.1c0.1,0,0.3,0,0.4-0.1c0.1-0.1,0.2-0.1,0.3-0.1c0.1,0,0.3,0.1,0.4,0.2c0.1,0.1,0.2,0.3,0.3,0.4
			c0.1,0.2,0.2,0.3,0.2,0.5S102.8,510.2,102.8,510.4z M89.3,504.1c0-0.1,0-0.2,0-0.3c0-0.1-0.1-0.2-0.1-0.3s-0.1-0.2-0.2-0.3
			c-0.1-0.1-0.1-0.1-0.2-0.1c-0.1,0-0.2,0-0.3,0.1c-0.1,0.1-0.2,0.1-0.3,0.1H88c0,0.1,0,0.2,0,0.3l0,0.1l0,0c0,0.1,0.1,0.2,0.2,0.3
			s0.2,0.1,0.3,0.2s0.2,0.1,0.3,0.1c0.1,0,0.2,0.1,0.3,0.2C89.2,504.4,89.3,504.3,89.3,504.1z M99.4,504.5c0-0.1,0-0.2-0.1-0.3
			c-0.1-0.1-0.2-0.1-0.3-0.1c-0.1,0-0.2,0.1-0.2,0.2c0,0.1-0.1,0.2-0.1,0.3c0,0.1,0,0.2,0.1,0.3c0,0.1,0.1,0.2,0.3,0.2
			c0.1,0,0.2,0,0.2-0.1C99.3,504.8,99.4,504.7,99.4,504.5L99.4,504.5z M99.7,507.5c0-0.1,0-0.1-0.1-0.2c-0.1,0-0.1-0.1-0.2-0.1
			c0,0.1-0.1,0.1-0.1,0.2c-0.1,0.1-0.1,0.1-0.2,0.2c-0.1,0.1-0.1,0.1-0.1,0.2s-0.1,0.1-0.1,0.2c0,0.1,0,0.1,0.1,0.2
			c0.1,0,0.1,0.1,0.2,0.1c0-0.1,0-0.1,0.1-0.2c0.1-0.1,0.1-0.1,0.2-0.2c0.1-0.1,0.1-0.1,0.1-0.2S99.7,507.5,99.7,507.5z"/>
	</g>
</g>
</svg>
